
<svg width="688" height="637" viewBox="0 0 688 637" fill="none" xmlns="http://www.w3.org/2000/svg">
<path d="M0.00274221 406.219C-0.449737 494.679 55.1358 580.956 135.808 617.006C216.48 653.055 317.73 636.86 383.177 577.445C407.838 555.056 427.703 516.073 406.785 490.143C385.504 463.761 335.549 470.457 321.697 439.502C312.861 419.763 327.134 395.311 347.265 387.462C367.396 379.613 390.471 384.889 409.744 394.662C429.018 404.435 445.841 418.403 464.505 429.298C507.36 454.319 561.506 461.916 607.554 443.433C653.602 424.949 688.773 378.397 687.987 328.727C687.201 279.057 646.242 231.47 596.705 228.829C567.465 227.272 539.53 239.872 510.729 245.158C483.444 250.168 447.456 256.485 442.772 218.216C440.533 199.931 448.108 182.087 454.155 164.689C468.258 124.114 473.783 76.3654 450.332 40.3872C432.278 12.6887 397.797 -3.31231 365.028 0.792747C332.26 4.8978 302.773 28.9087 292.088 60.2083C284.519 82.3796 285.987 106.44 284.918 129.848C283.848 153.257 279.381 178.213 262.992 194.939C248.195 210.042 224.567 214.213 204.74 208.116C184.192 201.798 175.909 186.486 152.277 190.036C114.011 195.784 79.5748 230.547 55.7425 258.815C21.2659 299.708 0.278975 352.488 0.00274221 406.219Z" fill="#F5F3F3"/>
<g clip-path="url(#clip0_67_1802)">
<path d="M327.929 42.3402C329.912 47.163 327.367 52.5681 322.241 54.4142C321.219 54.7831 320.145 54.9902 319.059 55.0281C314.922 55.1734 310.95 52.8614 309.371 49.0241C307.387 44.2 309.933 38.7948 315.057 36.9488C320.182 35.1027 325.944 37.5175 327.929 42.3402Z" fill="#FFFD00" fill-opacity="0.815686"/>
<path d="M336.397 71.3108C336.338 71.3478 335.761 70.2145 334.418 68.4863C333.075 66.7581 330.756 64.564 327.304 63.0414C323.901 61.5338 319.312 60.6841 314.795 62.0094C312.545 62.6631 310.356 63.8472 308.269 65.3835C306.19 66.9431 304.112 68.7384 302.486 70.7805C300.908 72.7471 299.811 74.9947 299.356 77.43L297.755 75.4949H304.765C319.259 75.5717 331.677 75.6032 338.764 76.0212L337.63 77.134C337.687 77.171 337.533 76.6489 337.356 76.2459C337.155 75.6977 337.07 75.399 336.945 75.0029C336.713 74.2656 336.534 73.6324 336.411 73.0993C336.165 72.0427 336.146 71.4191 336.397 71.3081C336.671 71.171 337.111 71.589 337.715 72.5141C338.017 72.976 338.359 73.5639 338.739 74.2683C338.922 74.6027 339.113 74.9604 339.312 75.3414C339.493 75.7526 339.86 76.0774 339.964 77.1696C339.991 77.454 339.904 77.7374 339.721 77.9574C339.539 78.1774 339.277 78.316 338.993 78.3428H338.956L338.757 78.3537C331.674 78.7402 319.255 78.7005 304.762 78.7553H297.752C297.514 78.7547 297.278 78.702 297.062 78.6009C296.847 78.4997 296.655 78.3526 296.502 78.1698C296.349 77.987 296.238 77.773 296.177 77.5427C296.115 77.3124 296.105 77.0714 296.146 76.8366V76.8188C296.694 73.8531 298.078 71.0367 299.933 68.733C301.894 66.3346 304.156 64.4913 306.485 62.8591C308.838 61.2447 311.436 59.9729 314.107 59.3589C316.635 58.7808 319.256 58.7341 321.803 59.2218C323.999 59.634 326.114 60.3991 328.066 61.4872C331.647 63.484 333.845 66.1373 334.961 68.0902C335.4 68.8378 335.784 69.6164 336.11 70.42C336.335 70.9943 336.423 71.304 336.397 71.3108Z" fill="#0A0909"/>
<path d="M357.781 91.7584C357.781 91.7584 357.752 91.3185 357.73 90.4989C357.708 89.6794 357.68 88.4761 357.643 86.9083C357.578 83.8 357.482 79.2596 357.361 73.531C357.13 62.1163 356.768 46.1639 356.539 27.6309L357.772 28.8643C340.277 29.0699 320.373 29.2289 299.635 29.2618H281.246L282.878 27.6295V52.8464C282.854 66.5813 282.83 79.6653 282.808 91.7556L281.246 90.1933C303.531 90.2399 322.385 90.4674 335.869 90.7579C349.353 91.0485 357.408 91.3418 357.781 91.7556C358.305 92.2161 350.727 92.5245 337.201 92.815C323.676 93.1056 304.199 93.3098 281.246 93.3358C280.827 93.3358 280.425 93.1693 280.129 92.873C279.832 92.5766 279.666 92.1747 279.666 91.7556C279.649 79.6653 279.633 66.5813 279.615 52.8464V27.6295C279.615 27.197 279.787 26.7822 280.093 26.4763C280.399 26.1705 280.814 25.9987 281.246 25.9987H299.643C320.384 26.0315 340.286 26.1823 357.781 26.381H357.808C357.97 26.3826 358.13 26.4162 358.28 26.4799C358.429 26.5435 358.564 26.636 358.677 26.752C358.791 26.8679 358.88 27.0051 358.941 27.1557C359.001 27.3063 359.031 27.4673 359.029 27.6295C358.815 46.6998 358.46 62.8193 358.226 74.0723C358.101 79.6735 358.003 84.1152 357.935 87.1577C357.896 88.6652 357.864 89.8164 357.842 90.599C357.827 90.9841 357.815 91.2842 357.808 91.4747C357.81 91.57 357.801 91.6653 357.781 91.7584Z" fill="#0A0909"/>
<path d="M320.243 91.7543C320.429 91.7543 321.807 100.834 321.951 111.243L321.978 118.198C321.915 128.578 321.931 136.627 320.418 136.611C318.737 136.639 318.859 128.59 318.715 118.21L318.688 111.256C318.755 100.846 319.992 91.7584 320.243 91.7543Z" fill="#0A0909"/>
<path d="M392.087 121.813C392.273 121.813 393.617 124.749 393.723 128.117V130.365C393.621 133.718 393.608 136.32 392.095 136.314C390.414 136.322 390.566 133.721 390.459 130.366V128.12C390.562 124.753 391.832 121.814 392.087 121.813Z" fill="#0A0909"/>
<path d="M392.086 121.846C391.964 121.873 391.839 121.886 391.715 121.883L390.618 121.925C389.659 121.949 388.255 121.979 386.448 122.071L371.267 122.598C358.542 122.97 341.189 123.331 322.663 123.384H297.902C276.337 123.323 257.598 123.293 245.747 122.972L246.973 121.747C246.748 130.214 246.377 135.168 245.747 135.137C245.047 135.168 244.665 130.214 244.45 121.747C244.445 121.581 244.474 121.416 244.534 121.261C244.594 121.106 244.683 120.964 244.798 120.844C244.912 120.724 245.05 120.627 245.201 120.56C245.353 120.493 245.517 120.456 245.683 120.452H245.749C257.599 120.152 276.338 120.178 297.904 120.118H322.667C341.205 120.17 358.56 120.514 371.278 120.877C377.638 121.058 382.838 121.244 386.449 121.4C388.254 121.465 389.664 121.573 390.621 121.664C391.577 121.754 392.086 121.813 392.086 121.846Z" fill="#0A0909"/>
<path d="M392.307 74.5397C392.52 74.5085 392.734 74.4902 392.95 74.4849L394.74 74.3917L401.31 74.0874C406.876 73.838 414.505 73.4557 423.191 73.235L421.886 74.5397C421.715 67.5407 421.589 59.781 421.558 51.7349V43.6491L423.191 45.2813H412.117L392.307 45.1964L393.853 43.6491C393.801 52.5106 393.558 59.9468 393.276 65.3739C392.993 70.801 392.702 74.145 392.307 74.5328C391.868 75.0057 391.565 72.1277 391.275 66.6732C390.984 61.2186 390.768 53.1808 390.736 43.6491C390.735 43.2342 390.899 42.8359 391.191 42.5417C391.484 42.2474 391.881 42.0813 392.296 42.0799H392.307L412.117 42.0168H423.191C423.623 42.0172 424.038 42.1893 424.344 42.4954C424.65 42.8015 424.822 43.2164 424.822 43.6491V51.7349C424.793 59.7824 424.672 67.5407 424.506 74.5397V74.6014C424.503 74.7701 424.466 74.9365 424.398 75.091C424.329 75.2454 424.232 75.385 424.109 75.5016C423.987 75.6182 423.844 75.7095 423.686 75.7705C423.529 75.8314 423.361 75.8607 423.192 75.8567C413.939 75.6457 406.116 75.2702 400.716 75.018L394.463 74.7069C393.029 74.6274 392.275 74.5726 392.307 74.5397Z" fill="#0A0909"/>
<path d="M321.614 156.995C329.76 156.995 336.364 152.299 336.364 146.506C336.364 140.714 329.76 136.018 321.614 136.018C313.467 136.018 306.863 140.714 306.863 146.506C306.863 152.299 313.467 156.995 321.614 156.995Z" fill="#FFFD00" fill-opacity="0.815686"/>
<path d="M321.613 158.234C312.798 158.234 305.625 152.972 305.625 146.506C305.625 140.04 312.798 134.779 321.613 134.779C330.428 134.779 337.601 140.039 337.601 146.506C337.601 152.974 330.431 158.234 321.613 158.234ZM321.613 137.256C314.163 137.256 308.101 141.405 308.101 146.506C308.101 151.607 314.163 155.757 321.613 155.757C329.063 155.757 335.126 151.606 335.126 146.506C335.126 141.407 329.066 137.256 321.613 137.256Z" fill="#0A0909"/>
<path d="M247.973 156.995C256.12 156.995 262.724 152.299 262.724 146.506C262.724 140.714 256.12 136.018 247.973 136.018C239.827 136.018 233.223 140.714 233.223 146.506C233.223 152.299 239.827 156.995 247.973 156.995Z" fill="#FFFD00" fill-opacity="0.815686"/>
<path d="M247.972 158.234C239.157 158.234 231.984 152.972 231.984 146.506C231.984 140.04 239.157 134.779 247.972 134.779C256.787 134.779 263.96 140.039 263.96 146.506C263.96 152.974 256.789 158.234 247.972 158.234ZM247.972 137.256C240.522 137.256 234.461 141.405 234.461 146.506C234.461 151.607 240.522 155.757 247.972 155.757C255.422 155.757 261.485 151.606 261.485 146.506C261.485 141.407 255.418 137.256 247.972 137.256Z" fill="#0A0909"/>
<path d="M393.071 156.995C401.217 156.995 407.821 152.299 407.821 146.506C407.821 140.714 401.217 136.018 393.071 136.018C384.924 136.018 378.32 140.714 378.32 146.506C378.32 152.299 384.924 156.995 393.071 156.995Z" fill="#FFFD00" fill-opacity="0.815686"/>
<path d="M393.071 158.234C384.255 158.234 377.082 152.972 377.082 146.506C377.082 140.04 384.255 134.779 393.071 134.779C401.888 134.779 409.059 140.039 409.059 146.506C409.059 152.974 401.886 158.234 393.071 158.234ZM393.071 137.256C385.62 137.256 379.558 141.405 379.558 146.506C379.558 151.607 385.62 155.757 393.071 155.757C400.523 155.757 406.583 151.606 406.583 146.506C406.583 141.407 400.521 137.256 393.071 137.256Z" fill="#0A0909"/>
<path d="M391.508 58.6613C391.508 58.8477 384.765 60.188 377.041 60.2935H371.881C364.179 60.188 358.206 60.1743 358.223 58.6613C358.206 56.9811 364.179 57.1332 371.881 57.0291H377.041C384.759 57.1332 391.499 58.405 391.508 58.6613Z" fill="#0A0909"/>
<path d="M279.41 92.8205L282.392 95.8027C283.1 96.5104 284.06 96.9081 285.062 96.9086H359.15C360.151 96.9083 361.112 96.5102 361.82 95.8019C362.528 95.0936 362.926 94.1331 362.926 93.1316V32.4906C362.925 31.59 362.604 30.719 362.018 30.0347L358.018 26.3741L357.91 89.0051L357.585 92.0393L279.363 92.0489" fill="#0A0909"/>
<path d="M361.495 63.2346L391.828 63.3264V58.4502L358.994 58.0172" fill="#0A0909"/>
<path d="M392.045 74.5959L396.229 80.0504L427.695 79.3638L427.768 44.9976L423.903 42.3046L423.145 74.2711L392.045 74.5959Z" fill="#0A0909"/>
<path d="M137.305 282.809C137.324 282.796 137.49 282.946 137.782 283.245L139.015 284.546C139.506 285.139 140.294 285.688 141.079 286.416C141.865 287.144 142.943 287.764 144 288.559C145.185 289.188 146.383 290.001 147.826 290.581C149.208 291.266 150.777 291.785 152.393 292.335L154.921 293.032L157.585 293.568C159.445 293.88 161.321 294.083 163.204 294.177C166.615 294.367 170.035 294.113 173.38 293.422C174.298 293.185 175.222 293.011 176.099 292.736C176.963 292.432 177.83 292.172 178.651 291.853L181.008 290.79C181.754 290.398 182.471 289.99 183.148 289.557C185.547 288.024 187.715 286.157 189.589 284.013C191.203 282.203 192.3 280.571 193.115 279.463C193.931 278.356 194.45 277.748 194.812 277.908C195.174 278.068 195.209 278.904 194.742 280.297C194.275 281.689 193.339 283.627 191.727 285.748C189.816 288.26 187.493 290.43 184.858 292.166C184.111 292.661 183.318 293.126 182.488 293.582L179.869 294.806C178.961 295.172 178.01 295.475 177.056 295.819C176.097 296.128 175.085 296.339 174.078 296.609C170.447 297.363 166.733 297.639 163.03 297.432C158.89 297.169 154.924 296.289 151.501 294.905C148.44 293.678 145.577 292.007 143.004 289.945C140.868 288.069 139.386 286.298 138.518 284.97C137.668 283.61 137.253 282.846 137.305 282.809Z" fill="#0A0909"/>
<path d="M354.313 365.58C354.313 365.58 354.135 365.683 353.765 365.854L352.15 366.597L345.955 369.407L323.343 379.443C304.346 387.772 278.337 398.916 250.444 410.513L213.142 425.935C185.282 437.384 160.583 447.631 142.785 454.811C124.986 461.991 114.118 466.172 113.868 465.438C113.484 464.707 124.069 459.795 141.728 452.271C159.387 444.747 184.076 434.465 211.897 422.918L249.197 407.496C277.127 395.998 303.394 385.51 322.668 377.861L345.692 368.795L352.05 366.368L353.726 365.764C354.106 365.625 354.306 365.565 354.313 365.58Z" fill="#0A0909"/>
<path d="M36.4032 498.792C36.3703 498.716 37.3022 497.993 38.8838 496.982L38.8947 496.975L39.1606 496.926H39.177L38.8536 497.002L39.5197 496.591L39.3196 496.689C39.4244 496.616 39.5349 496.553 39.6499 496.498L39.5882 496.521C42.0284 495.003 44.5729 493.66 47.2026 492.5L51.2811 490.794C57.4085 488.342 62.1339 486.38 62.7054 487.779C63.366 489.325 58.5871 491.159 52.542 493.802L48.4634 495.509C45.7946 496.571 43.0558 497.448 40.2666 498.134L40.183 498.096C40.2501 498.211 40.2433 498.096 40.2638 498.103L40.4338 498.125L40.0569 498.204L39.5087 498.318L39.1716 498.398H39.1551L39.4415 498.34C37.6174 498.757 36.4484 498.894 36.4032 498.792Z" fill="#0A0909"/>
<path d="M567.434 399.797C567.312 399.813 567.188 399.813 567.066 399.797L565.994 399.745L561.895 399.471C558.345 399.221 553.24 398.807 547.002 398.254C534.531 397.138 517.53 395.376 499.446 393.019L475.301 389.698C439.29 384.533 411.453 379.943 411.764 378.486C411.963 376.791 439.749 381.512 475.756 386.466L499.877 389.783C517.931 392.25 534.824 394.702 547.199 396.546L561.963 398.808L566.019 399.485C566.946 399.66 567.436 399.765 567.434 399.797Z" fill="#0A0909"/>
<path d="M36.5782 497.006C36.5782 497.006 36.8043 497.031 37.2442 497.116L39.1944 497.518H39.1615H39.1903H39.2108C49.9307 499.752 92.5486 509.265 139.844 522.186C152.034 525.525 164.208 528.924 176.367 532.384C203.577 540.16 227.642 547.374 244.839 552.804C262.029 558.272 272.368 561.885 272.079 562.583C271.872 563.405 261.318 560.527 244.04 555.435C226.742 550.385 202.691 543.194 175.474 535.524C163.327 532.067 151.162 528.67 138.98 525.334L39.1409 497.797H39.178H39.1355H39.1218L37.2195 497.233C36.7919 497.1 36.5754 497.023 36.5782 497.006Z" fill="#0A0909"/>
<path d="M571.751 401.113C571.751 401.113 571.526 401.263 571.065 401.524L569.041 402.689L561.255 407.084L532.833 422.902C508.972 436.1 476.35 453.976 441.365 472.77L394.587 497.825C359.648 516.474 328.64 533.046 306.295 544.775C295.123 550.64 286.117 555.296 279.867 558.397C273.618 561.499 270.127 563.044 269.985 562.692C269.516 561.989 282.837 554.424 304.996 542.349C327.156 530.274 358.157 513.689 393.047 494.948L439.83 469.897C474.866 451.197 507.805 433.947 532.014 421.4L560.931 406.511L568.915 402.472L571.015 401.439C571.492 401.21 571.751 401.113 571.751 401.113Z" fill="#0A0909"/>
<path d="M201.772 517.428C201.86 517.154 202.119 516.961 206.636 518.206C208.893 518.829 212.217 519.811 217.115 521.322L225.708 524.005L231.01 525.682C231.59 525.85 232.144 526.099 232.655 526.423C233.203 526.757 233.929 527.542 233.904 528.555C233.911 529.078 233.723 529.584 233.377 529.976C233.087 530.29 232.73 530.534 232.332 530.692C231.74 530.918 231.124 531.076 230.496 531.163C225.535 532.185 218.929 531.954 212.26 530.639C205.557 529.373 198.693 527.123 192.663 524.583C186.632 522.044 181.359 519.278 177.724 517.002C175.907 515.86 174.469 514.883 173.532 514.124C172.595 513.365 172.089 512.945 172.131 512.89C172.234 512.753 174.4 514.261 178.135 516.297C183.005 518.927 188.04 521.236 193.211 523.209C199.249 525.539 206.055 527.612 212.61 528.743C219.165 529.92 225.417 530.075 230.142 529.1C230.61 529.037 231.069 528.925 231.513 528.766C231.621 528.727 231.721 528.668 231.808 528.593C231.82 528.567 231.808 528.618 231.808 528.55C231.808 528.481 231.776 528.36 231.483 528.151C231.137 527.939 230.764 527.775 230.374 527.664L225.083 525.955L216.528 523.151C211.661 521.541 208.386 520.41 206.185 519.61C201.784 518.009 201.684 517.704 201.772 517.428Z" fill="#0A0909"/>
<path d="M211.352 509.945C211.403 509.671 211.592 509.407 215.157 509.923C216.938 510.197 219.56 510.672 223.389 511.616C228.592 512.921 233.712 514.531 238.725 516.44L241.548 517.551C242.043 517.773 242.507 517.861 243.449 518.526C243.86 518.855 244.17 519.258 244.229 519.739C244.26 519.983 244.234 520.231 244.153 520.463C244.071 520.695 243.936 520.904 243.759 521.075C243.428 521.443 242.779 521.745 242.443 521.885C242.135 522.008 241.82 522.114 241.5 522.204C240.877 522.385 240.254 522.521 239.621 522.638C238.988 522.756 238.362 522.854 237.672 522.919L235.737 523.057C230.487 523.371 225.217 523.102 220.026 522.255C215.789 521.572 211.628 520.482 207.601 518.999C204.52 517.853 202.724 516.895 202.774 516.777C202.835 516.629 204.733 517.325 207.856 518.226C211.91 519.404 216.049 520.262 220.237 520.791C225.334 521.43 230.483 521.544 235.603 521.134L237.483 520.958C238.052 520.894 238.666 520.786 239.243 520.672C239.82 520.558 240.394 520.42 240.923 520.261C241.177 520.186 241.428 520.097 241.673 519.996C241.876 519.913 241.778 519.947 241.81 519.933C241.818 519.924 241.798 519.913 241.798 519.913C241.859 519.933 241.249 519.659 240.772 519.48L237.983 518.394C231.6 515.982 226.648 514.529 222.908 513.478C219.168 512.427 216.592 511.834 214.868 511.372C211.404 510.492 211.299 510.24 211.352 509.945Z" fill="#0A0909"/>
<path d="M212.915 502.594C213.037 502.029 213.533 501.658 232.591 505.746L242.113 507.872L244.812 508.495C245.689 508.71 246.763 508.886 247.751 509.605C248.26 509.983 248.65 510.499 248.874 511.092C248.996 511.414 249.05 511.759 249.031 512.103C249.013 512.447 248.922 512.783 248.765 513.09C248.459 513.645 247.977 514.082 247.395 514.332C246.925 514.541 246.428 514.687 245.919 514.764C242.882 515.124 239.82 515.234 236.764 515.093C234.434 514.973 233.009 514.736 233.016 514.599C233.006 514.287 238.816 514.484 245.639 513.312C246.412 513.155 247.161 512.793 247.316 512.371C247.524 511.997 247.257 511.369 246.729 511.01C246.181 510.629 245.346 510.47 244.421 510.293L241.714 509.748L232.158 507.784C213.095 503.698 212.797 503.156 212.915 502.594Z" fill="#0A0909"/>
<path d="M190.398 489.3C190.38 489.013 190.483 488.752 193.668 488.403C196.153 488.214 198.646 488.16 201.137 488.241C214.701 488.743 227.972 492.337 239.935 498.75C240.923 499.258 241.862 499.805 242.764 500.341C243.664 500.904 244.537 501.284 245.39 502.055C245.826 502.456 246.115 502.99 246.212 503.574C246.29 504.108 246.213 504.654 245.991 505.146C245.625 505.975 244.975 506.646 244.159 507.04C242.668 507.687 241.406 507.469 240.61 507.371C239.798 507.234 239.368 507.097 239.376 507.034C239.384 506.971 239.839 506.955 240.641 506.951C241.422 506.926 242.639 506.951 243.785 506.316C244.375 505.966 244.827 505.423 245.065 504.778C245.308 504.093 245.202 503.398 244.599 502.915C243.996 502.431 243.008 501.99 242.118 501.504C241.206 501.021 240.259 500.526 239.265 500.067C235.16 498.082 230.923 496.383 226.584 494.981C222.759 493.747 218.865 492.736 214.923 491.954C210.342 491.053 205.706 490.458 201.047 490.172C197.62 489.977 195.291 489.951 193.716 489.888C190.566 489.849 190.416 489.587 190.398 489.3Z" fill="#0A0909"/>
<path d="M198.743 489.2C198.58 488.652 198.78 488.096 214.676 483.269L222.655 480.939L224.948 480.293C225.821 480.107 226.741 479.915 227.866 480.339C228.167 480.466 228.436 480.661 228.65 480.907C228.865 481.154 229.021 481.447 229.106 481.763C229.245 482.355 229.147 482.979 228.832 483.5C228.321 484.387 227.585 484.897 226.998 485.349C222.041 489.102 217.097 490.308 217.053 490.051C216.928 489.762 221.59 488.067 226.075 484.195C226.65 483.707 227.171 483.244 227.408 482.743C227.626 482.253 227.486 482.07 227.196 481.939C226.316 481.615 224.659 482.342 223.191 482.786L215.264 485.277C199.367 490.102 198.905 489.754 198.743 489.2Z" fill="#0A0909"/>
<path d="M148.705 270.732C148.705 270.732 148.542 271.04 148.193 271.63C147.676 272.503 147.077 273.326 146.404 274.086C144.675 276.107 141.553 278.737 136.81 280.584C134.187 281.597 131.464 282.332 128.687 282.777C125.649 283.287 122.309 283.462 118.758 283.515C115.207 283.567 111.418 283.493 107.444 283.619C103.482 283.78 99.2879 284.07 95.1326 285.326C93.0193 285.821 90.9786 286.712 88.8791 287.545L85.8188 289.099C84.7827 289.609 83.8316 290.304 82.8188 290.904C78.8595 293.467 75.092 296.66 71.5877 300.33C64.612 307.731 58.6833 316.958 53.7358 327.171C48.8706 337.432 44.8044 348.68 41.4221 360.444C38.1014 372.241 35.529 384.613 33.6103 397.295C31.9274 408.597 30.7981 419.986 30.0868 431.403C29.7196 437.112 29.4989 442.831 29.318 448.55C29.1727 454.223 29.181 459.909 30.9626 464.996C32.2042 468.646 34.4751 471.812 37.3504 474.335C40.2161 476.88 43.6094 478.82 47.1123 480.437C50.6153 482.055 54.2799 483.346 57.9391 484.538C61.5983 485.73 65.2369 486.828 68.8509 487.846C83.3204 491.892 97.2911 494.858 110.054 498.422C116.453 500.248 122.443 501.969 128.306 503.378C134.142 504.811 139.732 506.02 145.026 507.103C155.602 509.257 164.971 510.883 172.821 512.27L171.568 513.055C174.291 504.441 177.992 498.315 180.751 494.429C183.557 490.543 185.423 488.803 185.583 488.988C185.857 489.166 184.367 491.193 181.931 495.206C179.535 499.223 176.199 505.323 173.782 513.718L173.495 514.713L172.445 514.554C164.553 513.369 155.136 511.891 144.479 509.842C139.152 508.81 133.516 507.65 127.623 506.238C121.74 504.868 115.549 503.127 109.258 501.362C96.5894 497.882 82.6242 494.958 68.0067 490.904C64.3543 489.883 60.6609 488.797 56.9537 487.575C53.2534 486.373 49.4874 485.048 45.7843 483.362C42.0813 481.676 38.4303 479.6 35.2166 476.762C32.0014 473.965 29.3235 470.259 27.8941 466.072C25.863 460.246 25.922 454.198 26.0563 448.46C26.2372 442.704 26.4592 436.948 26.8292 431.199C27.5473 419.701 28.6835 408.219 30.3829 396.807C32.344 384.008 35.0041 371.508 38.4536 359.591C41.9744 347.693 46.1886 336.381 51.2786 325.975C56.448 315.628 62.6357 306.277 69.9472 298.773C77.2725 291.362 85.8201 285.742 94.668 283.667C99.0329 282.448 103.365 282.245 107.382 282.174C111.412 282.137 115.194 282.311 118.723 282.341C122.252 282.372 125.535 282.291 128.522 281.878C131.255 281.521 133.944 280.882 136.546 279.972C141.253 278.309 144.405 275.852 146.199 273.928C147.993 272.004 148.635 270.69 148.705 270.732Z" fill="#0A0909"/>
<path d="M185.552 260.34C185.552 260.34 185.499 260.586 185.367 261.055C185.198 261.754 185.088 262.466 185.038 263.183C184.857 265.923 185.653 268.638 187.285 270.846C188.325 272.248 189.888 273.465 191.832 274.332C193.775 275.2 196.042 275.775 198.52 276.196C200.998 276.617 203.711 276.891 206.558 277.6C209.549 278.327 212.453 279.377 215.218 280.732C221.026 283.553 226.754 287.841 231.861 293.348C236.99 298.871 241.324 305.603 245.348 312.832C249.345 320.095 252.944 327.958 256.277 336.182C257.922 340.315 259.614 344.45 260.982 348.844C262.49 353.184 263.741 357.629 264.98 362.059C267.197 369.944 269.565 377.762 273.486 384.745C273.98 385.611 274.494 386.468 275.024 387.308C275.572 388.11 276.12 389.033 276.669 389.672C277.209 390.338 277.862 390.844 278.264 390.927C278.642 390.989 278.885 390.963 279.36 390.43C279.812 389.919 280.272 388.999 280.759 388.083L282.198 385.371L285.076 379.947C289.287 371.804 293.025 363.704 296.509 355.851C299.935 347.974 303.054 340.311 306.116 333.089C312.228 318.623 317.546 305.62 322.3 294.822C323.619 292.118 325.125 289.509 327.474 287.611C328.648 286.663 330.267 286.007 331.825 286.103C333.374 286.18 334.658 286.776 335.732 287.374C337.88 288.615 339.517 289.987 341.135 291.015C342.752 292.043 344.305 292.978 345.698 293.575C348.501 294.853 350.918 294.524 352.331 293.878C353.744 293.233 354.258 292.461 354.435 292.612C354.594 292.652 354.393 293.715 352.841 294.795C351.875 295.423 350.772 295.808 349.625 295.919C348.262 296.085 346.652 295.857 345.035 295.279C343.39 294.698 341.781 293.826 340.018 292.83C338.244 291.806 336.497 290.475 334.599 289.468C333.652 288.974 332.672 288.602 331.743 288.591C330.814 288.58 329.942 288.928 329.085 289.63C327.346 291.088 325.967 293.424 324.789 295.989C320.321 306.815 314.975 319.779 308.991 334.28C305.952 341.535 302.857 349.218 299.434 357.134C295.958 365.036 292.206 373.2 287.983 381.428L285.076 386.902L283.624 389.643C283.135 390.528 282.717 391.496 281.831 392.56C281.334 393.16 280.698 393.631 279.978 393.93C279.178 394.245 278.299 394.301 277.465 394.09C275.853 393.639 274.934 392.646 274.161 391.76C272.739 389.916 271.724 388.207 270.641 386.342C266.489 378.941 264.07 370.855 261.839 362.941C260.605 358.476 259.392 354.094 257.952 349.864C256.661 345.592 254.992 341.412 253.416 337.321C250.201 329.143 246.758 321.333 242.951 314.13C239.113 306.952 235.002 300.288 230.197 294.866C225.392 289.445 219.973 285.152 214.458 282.27C211.833 280.888 209.068 279.79 206.21 278.996C203.512 278.229 200.836 277.868 198.318 277.351C195.801 276.835 193.465 276.173 191.456 275.159C189.444 274.171 187.801 272.786 186.754 271.247C185.136 268.881 184.434 266.007 184.779 263.162C185.038 261.252 185.552 260.34 185.552 260.34Z" fill="#0A0909"/>
<path d="M193.716 486.621C193.531 486.604 193.347 486.571 193.168 486.522L191.594 486.167L185.59 484.737L163.8 479.341L132.088 471.229L113.688 466.405L104.06 463.84C100.827 462.962 97.5054 462.132 94.1793 461.04C90.9573 459.968 87.738 458.733 84.6887 457.009L84.4927 456.898L84.3365 456.742L84.3187 456.724L84.6818 456.998C80.3456 454.634 76.363 451.091 74.0058 446.536L73.8167 445.785C73.8194 446.002 73.8654 446.216 73.952 446.415C74.0386 446.614 74.1641 446.794 74.321 446.944C74.6078 447.22 74.9879 447.378 75.3859 447.387L73.988 446.515C71.9323 442.589 71.0346 438.209 70.8825 433.926C70.755 430.363 71.1237 426.871 71.761 423.526C72.3804 420.14 73.3781 417.029 74.1977 413.939C75.834 407.739 77.7034 401.879 79.4055 396.286C81.1419 390.708 82.6946 385.396 84.3269 380.502C85.9591 375.608 87.5585 371.096 89.018 366.992C94.8467 350.563 98.658 340.698 99.372 341.008C100.164 341.228 97.0737 351.345 91.6247 367.869C90.2638 372.001 88.7686 376.539 87.1597 381.427C85.5891 386.325 84.0829 391.622 82.3849 397.188C80.7198 402.761 78.8806 408.608 77.2785 414.774C76.4686 417.86 75.4887 420.976 74.9295 424.12C74.3388 427.272 74.0099 430.541 74.1401 433.804C74.2772 437.725 75.0995 441.608 76.8729 444.993L75.475 444.123C75.8846 444.128 76.2767 444.29 76.5713 444.575C76.7315 444.728 76.8595 444.912 76.9477 445.115C77.036 445.318 77.0827 445.537 77.0853 445.759L76.8962 445.009C78.9286 448.925 82.3123 451.971 86.2675 454.141L86.4662 454.249L86.6307 454.413L86.6485 454.431L86.2963 454.157C89.0646 455.729 92.1002 456.898 95.2044 457.93C98.3866 458.989 101.659 459.834 104.905 460.745L114.498 463.423L132.801 468.587L164.238 477.669C173.256 480.357 180.632 482.555 185.755 484.08L191.648 485.907L193.198 486.422C193.377 486.469 193.551 486.536 193.716 486.621Z" fill="#0A0909"/>
<path d="M236.916 414.304C236.895 414.314 236.746 414.108 236.483 413.702L235.374 411.92C234.429 410.365 233.096 408.106 231.504 405.32C227.491 398.195 223.929 390.826 220.839 383.255C219.293 379.388 217.823 375.491 216.43 371.564C213.357 362.758 210.965 354.855 209.43 349.132C209.336 348.774 209.243 348.425 209.156 348.085L209.018 347.58L208.955 347.332C208.955 347.351 208.918 347.195 208.905 347.095C208.89 347 208.885 346.904 208.89 346.807C208.89 346.691 208.899 346.698 208.901 346.714C208.929 346.769 208.868 346.398 208.795 346.159C208.725 345.893 208.642 345.611 208.557 345.351L207.648 342.552C207.168 340.988 207.031 340.063 207.374 339.908C207.745 339.721 208.414 340.388 209.305 341.793C209.845 342.659 210.333 343.557 210.766 344.482C210.903 344.756 211.025 345.049 211.151 345.377C211.269 345.734 211.425 345.98 211.48 346.722V346.901C211.936 346.928 210.865 346.873 210.94 346.873L210.863 346.862C210.726 346.85 210.589 346.85 210.452 346.862L210.492 346.85H210.501C210.301 346.907 212.283 346.318 211.442 346.576V346.591L211.525 346.831L211.696 347.321L212.046 348.342C213.948 353.933 216.348 361.796 219.489 370.481C220.87 374.368 222.325 378.226 223.853 382.055C227.243 390.663 230.546 398.699 233.035 404.574C234.289 407.507 235.282 409.926 235.95 411.62C236.617 413.314 236.978 414.272 236.916 414.304Z" fill="#0A0909"/>
<path d="M358.604 292.166C358.626 292.175 358.571 292.44 358.445 292.946C358.319 293.452 358.113 294.18 357.86 295.125C357.311 296.999 356.534 299.696 355.578 302.99C353.626 309.569 350.918 318.511 347.889 328.006L343.864 340.703C337.87 359.664 333.974 374.586 332.496 374.15C330.887 373.765 334.932 358.825 340.746 339.738C342.058 335.48 343.415 331.241 344.785 326.993C347.937 317.497 351.31 308.753 353.958 302.413C355.286 299.245 356.41 296.67 357.232 294.896C358.054 293.123 358.543 292.146 358.604 292.166Z" fill="#0A0909"/>
<path d="M340.437 258.288C340.437 258.288 340.396 258.048 340.352 257.595C340.308 257.141 340.234 256.474 340.129 255.623C339.799 253.251 339.248 250.916 338.484 248.647C337.382 245.358 335.825 242.24 333.86 239.382C333.594 239.022 333.264 238.519 333.046 238.264C332.943 238.155 332.816 238.07 332.676 238.016C332.536 237.962 332.385 237.939 332.235 237.95C332.081 237.957 331.93 237.997 331.792 238.066C331.655 238.135 331.533 238.232 331.435 238.35C331.343 238.47 331.278 238.607 331.243 238.753C331.197 238.957 331.141 239.227 331.106 239.466C330.79 241.439 330.903 243.555 331.224 245.682C331.792 249.475 333.046 253.312 333.083 257.437C333.105 259.756 332.624 261.939 332.149 263.948C331.673 265.957 331.176 267.851 330.955 269.651C330.514 273.256 331.066 276.547 331.663 279.233C332.261 281.919 332.968 284.07 333.367 285.568C333.766 287.065 333.938 287.907 333.756 287.962C333.563 288.041 333.128 287.3 332.505 285.869C331.628 283.823 330.9 281.716 330.327 279.565C329.617 276.824 328.969 273.363 329.409 269.47C329.82 265.593 331.487 261.658 331.452 257.449C331.43 253.661 330.219 249.901 329.61 245.925C329.287 243.69 329.188 241.402 329.587 239.21C329.637 238.927 329.691 238.681 329.768 238.375C329.91 237.84 330.223 237.366 330.66 237.026C331.097 236.687 331.633 236.5 332.187 236.495C332.545 236.485 332.901 236.553 333.23 236.695C333.559 236.837 333.852 237.049 334.091 237.317C334.502 237.842 334.691 238.194 334.995 238.634C336.919 241.652 338.372 244.944 339.305 248.399C339.947 250.749 340.335 253.161 340.463 255.594C340.493 256.46 340.507 257.133 340.484 257.592C340.489 257.825 340.474 258.058 340.437 258.288Z" fill="#0A0909"/>
<path d="M345.757 263.977C345.754 263.793 345.767 263.61 345.795 263.429C345.836 263.075 345.897 262.554 345.973 261.89C346.11 260.555 346.338 258.639 346.521 256.29C347.001 250.328 347.104 244.341 346.83 238.365C346.759 236.847 346.672 235.328 346.539 233.813C346.468 233.044 346.435 232.294 346.29 231.62C346.167 230.949 345.94 230.302 345.617 229.701C345.259 229.071 344.795 228.686 344.292 228.632C343.744 228.579 343.275 228.809 342.886 229.305C342.496 229.801 342.236 230.476 342.055 231.154C341.874 231.832 341.781 232.542 341.667 233.28C341.212 236.17 340.805 238.753 340.465 240.915C339.739 245.227 339.172 247.826 338.799 247.759C338.388 247.712 338.571 245.059 339.103 240.719C339.394 238.55 339.739 235.959 340.127 233.058C340.332 231.645 340.486 229.905 341.622 228.329C342.177 227.535 343.328 226.878 344.46 227.027C345.653 227.143 346.564 228.039 347.031 228.887C347.906 230.423 348.061 232.176 348.166 233.665C348.303 235.202 348.388 236.744 348.461 238.286C348.689 244.339 348.327 250.401 347.382 256.384C347.012 258.728 346.604 260.625 346.308 261.936L345.928 263.444C345.892 263.628 345.834 263.806 345.757 263.977Z" fill="#0A0909"/>
<path d="M355.156 266.712C355.156 266.712 355.183 266.493 355.267 266.083C355.351 265.674 355.488 265.072 355.655 264.302C356.002 262.763 356.502 260.548 357.113 257.843C358.312 252.431 359.947 245.041 360.734 237.063C360.917 235.288 361.039 233.51 361.101 231.73C361.138 229.937 361.282 228.166 360.663 226.742C360.05 225.098 358.394 224.985 357.323 226.294C356.226 227.498 355.61 229.259 354.875 230.806C353.484 233.929 352.359 236.773 351.449 239.166C349.645 243.947 348.679 246.909 348.304 246.786C347.91 246.694 348.513 243.607 350.154 238.7C350.976 236.251 352.066 233.355 353.443 230.18L354.53 227.746C354.94 226.824 355.485 225.969 356.148 225.209C356.825 224.437 357.982 223.631 359.344 223.793C360.006 223.865 360.629 224.141 361.126 224.584C361.583 225.006 361.94 225.523 362.173 226.1C362.987 228.054 362.758 230.005 362.74 231.78C362.674 233.598 362.548 235.412 362.365 237.222C361.51 245.349 359.51 252.721 357.955 258.054C357.171 260.721 356.474 262.885 355.985 264.385L355.401 266.114C355.339 266.321 355.257 266.521 355.156 266.712Z" fill="#0A0909"/>
<path d="M355.801 291.299C355.801 291.299 355.906 291.017 356.139 290.494C356.372 289.972 356.724 289.21 357.17 288.23C358.035 286.258 359.291 283.424 360.645 279.888C363.426 272.845 366.515 262.992 369.267 252.311C370.525 247.563 371.683 242.784 372.802 237.994C373.417 235.339 374.086 232.649 374.561 230.249C374.748 229.068 374.627 228.01 373.986 227.31C373.344 226.609 372.558 226.541 371.801 227.112C371.045 227.684 370.431 228.657 369.785 229.553C369.14 230.45 368.552 231.335 367.994 232.205C366.867 233.932 365.87 235.567 364.994 237.074C361.503 243.118 359.846 247.045 359.47 246.862C359.106 246.746 360.429 242.632 363.795 236.402C364.64 234.847 365.62 233.169 366.74 231.399C367.299 230.514 367.893 229.609 368.522 228.684C369.168 227.795 369.74 226.744 370.865 225.864C371.413 225.439 372.211 225.094 373.058 225.162C373.877 225.24 374.633 225.633 375.167 226.259C375.68 226.839 376.02 227.551 376.151 228.314C376.262 229.029 376.259 229.757 376.141 230.471C375.632 233.125 375.004 235.641 374.39 238.359C373.27 243.155 372.108 247.952 370.845 252.72C368.031 263.434 364.576 273.27 361.442 280.206C359.91 283.691 358.479 286.456 357.467 288.365L356.252 290.542C355.972 291.047 355.801 291.299 355.801 291.299Z" fill="#0A0909"/>
<path d="M362.131 276.307C362.2 276.172 362.282 276.043 362.375 275.923L363.122 274.875L365.916 271.124C368.284 268.002 371.568 263.796 375.2 259.412L380.083 253.576C381.042 252.494 381.784 251.478 382.114 250.391C382.444 249.305 382.047 248.555 381.189 248.288C380.309 248.014 379.185 248.216 378.192 248.418C377.266 248.62 376.36 248.901 375.483 249.259C372.264 250.605 370.725 252.215 370.437 251.895C370.289 251.758 370.558 251.24 371.284 250.498C372.011 249.757 373.215 248.811 374.928 248.001C375.867 247.559 376.847 247.213 377.854 246.967C378.93 246.742 380.154 246.398 381.645 246.798C382.05 246.913 382.426 247.111 382.75 247.38C383.073 247.648 383.338 247.981 383.525 248.358C383.922 249.172 383.865 250.088 383.65 250.824C383.224 252.307 382.252 253.554 381.352 254.599L376.461 260.447C372.779 264.807 369.22 268.794 366.571 271.685L363.377 275.094L362.473 276.011C362.374 276.125 362.258 276.225 362.131 276.307Z" fill="#0A0909"/>
<path d="M565.495 404.074C467.494 456.988 368.879 509.653 270.876 562.569C204.93 540.882 138.237 521.647 70.7972 504.863C59.4222 502.016 47.8979 499.642 36.6188 496.532C36.2186 501.951 38.1716 509.086 36.5078 514.257C37.2314 512.124 216.368 563.34 233.339 568.125C246.016 571.701 258.687 575.297 271.352 578.913C373.864 526.766 472.377 471.95 571.181 414.637C570.77 410.957 571.359 405.487 570.943 401.809L565.495 404.074Z" fill="#0A0909"/>
<path d="M160.333 255.977L159.459 256.851L160.419 257.812L161.293 256.938L160.333 255.977Z" fill="#0A0909"/>
<path d="M203.818 165.331C204.084 165.217 204.366 165.171 205.001 166.112C205.589 167.054 206.577 169.074 207.216 173.102C207.55 175.104 207.764 177.593 208.023 180.579C208.16 182.07 208.312 183.689 208.582 185.409C208.719 186.265 208.897 187.146 209.112 188.047C209.373 189.136 209.563 190.241 209.681 191.355C210.214 195.971 209.486 201.143 209.022 206.813C208.97 207.521 208.926 208.237 208.896 208.959C208.857 209.724 208.816 210.502 208.777 211.289C208.693 212.88 208.545 214.516 208.375 216.206C208.036 219.586 207.469 223.161 206.714 226.945C205.77 231.639 204.419 236.241 202.677 240.701C200.709 245.574 198.117 250.798 193.933 255.195L192.325 256.809C191.785 257.344 191.13 257.776 190.533 258.262C189.366 259.28 187.949 259.986 186.587 260.759C183.755 262.14 180.667 262.919 177.519 263.048C171.257 263.349 165.412 261.303 160.379 258.817C155.676 256.388 151.345 253.296 147.522 249.635C143.945 246.191 141.744 242.241 140.28 238.929C138.809 235.593 137.865 232.841 137.19 230.944C136.514 229.048 136.2 227.973 136.336 227.913C136.471 227.852 137.052 228.813 137.965 230.614C138.878 232.415 140.087 235.071 141.742 238.212C143.398 241.353 145.663 244.898 149.111 247.919C152.903 251.228 157.131 254.002 161.677 256.162C166.484 258.342 171.941 260.009 177.323 259.589C179.974 259.414 182.562 258.697 184.925 257.481C186.053 256.796 187.234 256.202 188.214 255.288C188.717 254.856 189.269 254.495 189.73 254.015L191.1 252.576C194.702 248.67 197.062 243.805 198.853 239.211C200.461 234.95 201.718 230.564 202.612 226.098C203.336 222.465 203.891 219.02 204.232 215.765C204.402 214.139 204.554 212.562 204.643 211.038C204.689 210.272 204.735 209.519 204.78 208.778C204.819 207.993 204.872 207.231 204.934 206.485C205.491 200.568 206.221 195.73 205.842 191.721C205.764 190.772 205.627 189.829 205.431 188.897C205.215 187.858 205.054 186.867 204.931 185.92C204.703 184.029 204.618 182.332 204.553 180.801C204.442 177.741 204.401 175.347 204.269 173.433C204.031 169.614 203.559 167.732 203.465 166.676C203.34 165.638 203.554 165.444 203.818 165.331Z" fill="#0A0909"/>
<path d="M137.346 143.568C134.697 137.965 135.355 130.86 139.165 125.938C143.396 120.473 151.21 118.095 157.768 120.278C164.326 122.461 169.157 129.049 169.269 135.956C172.343 126.381 184.384 120.852 193.651 124.762C202.918 128.672 207.356 141.152 202.647 150.038C210.747 148.158 219.855 152.208 223.889 159.481C227.924 166.754 226.519 176.624 220.63 182.492C224.292 186.167 225.582 192.016 223.802 196.882C222.021 201.749 217.266 205.396 212.098 205.844C215.524 212.422 211.252 221.706 204.023 223.386C205.099 214.627 205.942 206.11 206.51 197.372C206.742 193.781 207.907 191.078 206.486 187.478C205.429 184.804 201.56 183.197 200.795 181.271C198.39 175.218 190.182 172.337 184.522 175.56C180.666 171.296 174.229 169.574 168.762 171.348C163.295 173.121 159.086 178.29 158.465 184.007C153.151 184.621 148.213 187.9 145.583 192.56C141.197 200.355 146.002 207.45 145.058 215.447C144.91 216.702 144.218 217.984 143.035 218.428C141.225 219.105 139.305 217.54 138.452 215.805C137.477 213.816 137.282 211.556 136.894 209.372C134.548 196.162 121.054 203.011 121.327 213.668C121.464 218.851 124.242 223.682 127.905 227.345C131.568 231.009 136.096 233.674 140.567 236.3C130.095 236.891 121.753 222.155 118.334 213.59C116.505 209.01 112.047 207.49 110.427 202.737C109.896 201.145 109.71 199.458 109.88 197.788C110.05 196.118 110.573 194.503 111.414 193.051C111.997 192.06 112.749 190.871 112.198 189.863C111.798 189.131 110.892 188.884 110.101 188.623C105.743 187.179 102.403 183.049 101.904 178.481C101.356 173.428 104.319 171.698 106.29 167.834C107.989 164.498 106.582 160.433 107.432 156.292C109.253 147.418 116.559 139.913 125.385 137.856C128.248 137.188 131.366 137.082 134.028 138.33C136.691 139.579 138.735 142.441 138.35 145.352C137.976 144.781 137.64 144.185 137.346 143.568Z" fill="#0A0909"/>
<path d="M178.442 224.855C178.613 224.598 178.794 224.489 180.155 225.025C181.201 225.433 182.282 225.744 183.384 225.954C184.276 226.114 185.182 226.18 186.088 226.153C186.574 226.142 187.055 226.047 187.508 225.871C187.978 225.658 188.131 225.49 188.347 225.005C189.276 222.708 187.434 217.193 187.431 213.01C187.102 208.736 186.942 205.253 187.228 205.216C187.515 205.179 188.188 208.599 188.899 212.832C189.07 213.894 189.248 215.003 189.428 216.121C189.594 217.152 189.899 218.262 190.132 219.362C190.575 221.565 191.008 223.76 190.293 225.773C190.002 226.682 189.059 227.555 188.311 227.794C187.626 228.062 186.897 228.201 186.161 228.205C185.09 228.218 184.023 228.096 182.983 227.843C181.226 227.399 180.146 226.793 179.47 226.335C178.137 225.38 178.293 225.072 178.442 224.855Z" fill="#0A0909"/>
<path d="M197.293 200.621L199.063 201.369C200.493 201.972 200.447 203.854 198.952 204.404C197.935 204.773 196.83 204.821 195.786 204.541C195.236 204.403 194.719 204.157 194.266 203.816C193.814 203.474 193.434 203.046 193.15 202.555C191.731 199.974 193.644 197.051 196.609 196.581C196.696 196.567 196.782 196.555 196.868 196.545C198.513 196.369 199.54 198.031 198.513 199.208L197.293 200.621Z" fill="#0A0909"/>
<path d="M170.806 203.692L172.489 204.616C173.85 205.362 173.604 207.228 172.059 207.621C171.01 207.887 169.904 207.823 168.893 207.439C168.36 207.247 167.872 206.949 167.458 206.563C167.043 206.178 166.71 205.713 166.479 205.196C165.338 202.486 167.55 199.777 170.551 199.61C170.639 199.61 170.725 199.603 170.813 199.601C172.468 199.593 173.314 201.35 172.172 202.416L170.806 203.692Z" fill="#0A0909"/>
<path d="M190.635 187.645C190.582 187.07 190.543 186.549 191.255 186.119C191.957 185.729 193.478 185.359 196.295 185.876C197.835 186.15 200.143 187.11 201.777 188.357C203.438 189.59 204.38 191.014 204.02 191.454C203.66 191.894 202.192 191.427 200.469 191.01C198.745 190.566 196.751 190.215 195.498 189.983C193.21 189.564 192.048 189.443 191.413 189.072C190.781 188.738 190.688 188.22 190.635 187.645Z" fill="#0A0909"/>
<path d="M173.698 188.38C173.711 188.957 173.681 189.476 173.013 189.887C172.344 190.323 171.038 190.562 168.522 191.154C167.142 191.474 164.959 191.962 163.073 192.5C161.19 193.012 159.589 193.537 159.245 193.063C158.901 192.589 159.98 191.162 161.748 189.856C163.494 188.533 165.916 187.462 167.534 187.089C170.492 186.394 172.091 186.619 172.871 186.933C173.657 187.281 173.686 187.803 173.698 188.38Z" fill="#0A0909"/>
<path d="M170.414 232.779C170.672 232.623 170.891 232.559 171.549 233.159C172.234 233.707 173.313 235.078 176.366 236.563C178.011 237.376 180.953 238.293 183.405 238.788C184.591 239.019 185.577 238.831 186.193 238.389C186.816 237.978 186.987 237.468 187.138 237.492C187.266 237.482 187.403 238.178 186.755 238.979C186.16 239.802 184.699 240.358 183.269 240.261C180.528 240.111 177.408 239.392 175.482 238.459C171.988 236.774 170.803 234.895 170.355 234.032C169.925 233.096 170.174 232.921 170.414 232.779Z" fill="#0A0909"/>
<path d="M184.057 243.757C184.109 244.031 184.155 244.323 183.336 244.6C182.564 244.829 180.64 245.1 177.841 243.48C176.282 242.619 174.441 240.546 173.433 238.635C172.381 236.733 171.81 235.111 172.044 234.971C172.303 234.813 173.352 236.204 174.648 237.801C175.934 239.426 177.663 240.998 178.912 241.686C181.196 242.996 182.55 242.959 183.212 243.125C183.903 243.244 184.002 243.465 184.057 243.757Z" fill="#0A0909"/>
<path d="M139.669 279.761C139.638 279.725 139.878 279.37 140.339 278.785L142.3 276.392C142.711 275.893 143.173 275.378 143.625 274.789C144.077 274.199 144.602 273.617 145.097 272.969C145.592 272.32 146.145 271.678 146.644 270.972C147.143 270.266 147.708 269.581 148.196 268.838C149.125 267.579 149.931 266.233 150.601 264.818C150.92 264.033 151.286 263.275 151.468 262.519C151.73 261.771 151.803 261.041 151.936 260.349C151.944 259.664 152.054 258.998 151.956 258.398C151.926 258.095 151.926 257.796 151.886 257.515C151.847 257.234 151.777 256.967 151.726 256.715C151.667 256.187 151.471 255.747 151.381 255.325C151.29 254.903 151.17 254.544 151.094 254.229C150.957 253.6 150.994 253.132 151.301 252.913C151.637 252.661 152.084 252.792 152.654 253.276C153.003 253.561 153.299 253.905 153.528 254.293C153.802 254.743 154.155 255.246 154.35 255.895C154.463 256.216 154.579 256.552 154.7 256.903C154.796 257.26 154.845 257.645 154.915 258.043C155.093 258.836 155.03 259.697 155.038 260.603C154.923 261.49 154.836 262.441 154.548 263.363C154.34 264.322 153.934 265.22 153.569 266.171C152.809 267.78 151.896 269.312 150.841 270.746C148.482 273.918 145.625 276.192 143.451 277.665C141.277 279.139 139.734 279.842 139.669 279.761Z" fill="#0A0909"/>
<path d="M84.9168 381.611C84.9414 381.611 85.0031 381.856 85.099 382.326C85.195 382.796 85.3156 383.488 85.4814 384.375C85.7994 386.157 86.2242 388.714 86.6984 391.85C87.6468 398.121 88.7966 406.686 89.6901 415.862L90.8098 428.13C92.3763 446.454 93.6454 460.657 92.1474 460.757C90.4645 460.949 89.3338 446.732 87.5604 428.426L86.438 416.155C85.6459 406.965 85.2046 398.339 84.9826 392C84.8743 388.833 84.8236 386.244 84.8154 384.435C84.8071 382.626 84.8565 381.616 84.9168 381.611Z" fill="#0A0909"/>
<path d="M177.027 448.359C177.138 448.353 177.248 448.363 177.356 448.387L178.307 448.534L181.934 449.153C185.068 449.702 189.573 450.538 195.064 451.594C206.076 453.621 221.084 456.37 237.138 459.118C244.281 460.376 251.437 461.552 258.607 462.646C290.7 467.653 315.819 469.833 315.598 471.395C315.514 473.011 290.345 470.689 258.113 465.872C250.92 464.775 243.74 463.595 236.572 462.332C220.485 459.472 205.573 456.028 194.708 453.276C189.281 451.857 184.854 450.661 181.788 449.803L178.255 448.786C177.445 448.541 177.027 448.39 177.027 448.359Z" fill="#0A0909"/>
<path d="M425.168 384.764C417.908 397.573 410.647 410.382 403.386 423.191C400.79 427.77 398.613 431.859 393.898 434.485C390.005 436.653 385.666 437.792 381.661 439.704L359.666 450.199L327.121 465.728C324.179 467.131 320.775 469.585 317.38 470.263C317.169 470.301 316.952 470.285 316.748 470.219C316.544 470.152 316.36 470.035 316.212 469.88C316.064 469.724 315.957 469.534 315.901 469.328C315.845 469.121 315.841 468.903 315.889 468.694C316.892 464.622 320.336 461.293 322.141 457.604C324.534 452.725 326.91 447.837 329.268 442.94C333.903 433.346 338.513 423.745 343.099 414.135C347.736 404.45 352.393 394.773 357.068 385.104C359.401 380.297 361.749 375.497 364.112 370.704C365.232 368.435 365.559 365.802 366.861 363.614C368.735 360.461 371.504 360.818 374.789 359.883C383.219 357.486 391.685 355.224 400.161 352.992C409.154 350.63 418.157 348.305 427.139 345.9C431.734 344.67 436.322 343.415 440.904 342.134C441.912 341.858 442.935 341.641 443.969 341.483C446.542 341.072 448.369 343.903 446.867 346.034C445.956 347.33 445.02 348.604 444.329 349.886C442.314 353.626 440.599 357.522 438.503 361.219L425.168 384.764Z" fill="#0A0909"/>
<path d="M425.168 384.764C425.168 384.764 425.297 384.481 425.579 383.942C425.861 383.403 426.289 382.607 426.845 381.563L431.759 372.489C433.865 368.56 436.577 363.792 439.472 358.236C440.88 355.429 442.229 352.367 443.928 349.167C444.379 348.357 444.888 347.589 445.409 346.827L446.191 345.686C446.405 345.348 446.558 345.068 446.602 344.727C446.852 343.35 445.459 341.926 443.938 342.363L441.119 342.997L438.185 343.836L432.133 345.564C428.021 346.757 423.736 347.916 419.313 349.128C410.474 351.555 401.041 354.061 391.242 356.837L376.214 361.023C374.999 361.384 373.456 361.755 372.221 361.983C370.944 362.243 369.899 362.557 369.178 363.178C368.457 363.799 367.89 364.772 367.446 365.935C367.002 367.099 366.668 368.402 366.173 369.793C365.922 370.492 365.628 371.175 365.293 371.838L364.394 373.696L362.589 377.428C361.377 379.925 360.157 382.438 358.93 384.966C356.501 390.035 354.048 395.155 351.569 400.326C342.684 418.7 333.947 437.163 324.982 455.518C324.323 456.824 323.805 458.027 323.019 459.427C322.261 460.753 321.42 461.935 320.629 463.089C319.853 464.179 319.139 465.313 318.493 466.485C318.202 467.032 317.952 467.6 317.743 468.184C317.628 468.466 317.566 468.751 317.478 469.035C317.478 469.069 317.478 468.85 317.429 468.821C317.409 468.786 317.382 468.756 317.349 468.733C317.316 468.709 317.279 468.693 317.24 468.684C317.187 468.673 317.132 468.673 317.08 468.684L317.484 468.591C318.077 468.441 318.658 468.25 319.224 468.018C320.424 467.51 321.592 466.931 322.723 466.284C323.9 465.636 325.086 464.943 326.387 464.315L330.026 462.583L357.761 449.4C366.605 445.226 374.836 441.251 382.779 437.598C386.855 435.909 390.824 434.736 393.991 432.791C397.116 430.873 399.169 427.822 400.98 424.727C408.244 412.133 414.151 402.006 418.306 395.117C422.461 388.227 424.884 384.537 425.184 384.764C425.572 384.93 423.677 388.906 419.896 396.019C416.115 403.131 410.485 413.372 403.362 426.105C401.572 429.269 399.273 432.871 395.541 435.224C391.884 437.499 387.798 438.698 383.951 440.343L359.109 452.211L331.409 465.465L327.78 467.203C326.651 467.751 325.493 468.424 324.287 469.093C323.044 469.805 321.759 470.442 320.44 471.002C319.732 471.293 319.004 471.533 318.262 471.721L317.657 471.858C317.262 471.929 316.857 471.916 316.468 471.82C316.094 471.727 315.741 471.56 315.432 471.329C315.122 471.099 314.861 470.809 314.665 470.477C314.468 470.145 314.339 469.777 314.286 469.394C314.232 469.012 314.256 468.623 314.354 468.25C314.465 467.867 314.559 467.474 314.702 467.111C314.962 466.381 315.273 465.67 315.634 464.984C316.338 463.697 317.116 462.452 317.964 461.255C318.763 460.086 319.557 458.957 320.203 457.816C320.811 456.743 321.436 455.333 322.059 454.087C331.02 435.752 339.751 417.301 348.646 398.912L363.274 368.735C363.716 367.546 364.065 366.209 364.605 364.828C365.14 363.475 365.892 361.977 367.264 360.853C368.636 359.73 370.299 359.334 371.623 359.072C372.899 358.848 374.163 358.559 375.41 358.206C380.545 356.846 385.582 355.511 390.522 354.201C400.39 351.557 409.838 349.208 418.72 346.947L431.593 343.647L437.669 342.053L440.617 341.282L443.632 340.672C444.756 340.406 446.198 340.777 447.059 341.648C447.501 342.07 447.833 342.594 448.026 343.174C448.219 343.754 448.267 344.372 448.166 344.975C448.053 345.551 447.815 346.094 447.467 346.566L446.658 347.682C446.129 348.418 445.624 349.141 445.189 349.875C443.471 352.914 442.018 355.977 440.521 358.761C437.431 364.303 434.6 368.928 432.349 372.8C430.067 376.637 428.286 379.64 427.076 381.678L425.675 383.989C425.357 384.507 425.168 384.764 425.168 384.764Z" fill="#0A0909"/>
<path d="M304.67 402.52C304.589 402.589 304.499 402.647 304.403 402.693L303.581 403.14L300.429 404.784C297.688 406.189 293.731 408.184 288.866 410.587C284.044 413.084 278.142 415.581 271.683 418.359L261.585 422.642L256.28 424.852C254.498 425.603 252.681 426.353 250.809 426.987L230.899 434.038C201.032 444.121 177.35 450.294 177.039 448.807C176.548 447.202 200.164 441.188 229.836 430.952L249.663 423.928C251.531 423.31 253.343 422.584 255.134 421.864L260.457 419.772L270.644 415.834C277.185 413.326 283.208 411.175 288.167 409.012C293.168 406.956 297.276 405.301 300.143 404.177L303.468 402.905C304.241 402.626 304.655 402.491 304.67 402.52Z" fill="#0A0909"/>
<path d="M343.856 412.77C343.856 412.817 343.341 412.86 342.435 412.881C341.529 412.902 340.231 412.893 338.647 412.83C334.624 412.653 330.619 412.195 326.661 411.46L320.651 410.198C311.718 408.142 304.881 406.174 305.302 404.738C305.735 403.093 312.462 405.175 321.351 407.01L327.299 408.26C331.749 409.198 335.885 410.273 338.918 411.127C341.951 411.981 343.874 412.64 343.856 412.77Z" fill="#0A0909"/>
<path d="M393.259 389.126C389.112 389.812 385.087 393.004 382.665 397.54C381.546 399.639 380.747 402.115 380.912 404.511C381.133 407.653 383.085 410.177 385.468 410.931C387.851 411.685 390.554 410.824 392.757 409.03C395.651 406.675 397.801 402.545 397.85 398.366C397.9 394.188 395.577 390.264 392.342 389.777" fill="white"/>
<path d="M231.074 432.534C241.995 434.27 252.775 436.804 263.326 440.115Z" fill="white"/>
<path d="M263.324 440.115C263.22 440.12 263.116 440.109 263.016 440.084L262.159 439.923L259.071 439.268C256.488 438.704 252.98 437.924 249.251 437.033L244.262 435.871C236.808 434.158 230.938 433.294 231.073 432.534C231.182 431.711 237.086 432.654 244.614 434.278L249.64 435.449C252.913 436.279 256.141 437.279 259.311 438.443C260.554 438.906 261.563 439.304 262.256 439.604C262.95 439.904 263.332 440.085 263.324 440.115Z" fill="#0A0909"/>
<path d="M260.823 439.182C260.732 439.183 260.644 439.155 260.571 439.101C260.498 439.048 260.445 438.971 260.42 438.884C260.395 438.797 260.4 438.705 260.433 438.62C260.466 438.536 260.526 438.465 260.603 438.418L285.979 422.476C286.025 422.447 286.076 422.428 286.13 422.419C286.183 422.41 286.238 422.411 286.29 422.423C286.343 422.436 286.393 422.458 286.437 422.489C286.481 422.521 286.519 422.561 286.547 422.607C286.576 422.652 286.595 422.704 286.604 422.757C286.613 422.81 286.612 422.865 286.6 422.918C286.587 422.97 286.565 423.02 286.534 423.064C286.502 423.108 286.462 423.146 286.416 423.175L261.037 439.119C260.972 439.158 260.898 439.18 260.823 439.182Z" fill="#0A0909"/>
<path d="M286.624 422.411C286.594 422.411 286.564 422.408 286.535 422.402L272.295 419.197C272.242 419.186 272.192 419.164 272.148 419.133C272.103 419.101 272.065 419.062 272.036 419.016C272.007 418.97 271.988 418.919 271.979 418.865C271.969 418.812 271.971 418.757 271.983 418.704C272.009 418.598 272.075 418.507 272.167 418.448C272.259 418.39 272.37 418.37 272.476 418.392L286.714 421.599C286.817 421.617 286.909 421.674 286.971 421.757C287.034 421.841 287.062 421.945 287.05 422.049C287.039 422.152 286.988 422.248 286.909 422.315C286.83 422.383 286.728 422.419 286.624 422.414V422.411Z" fill="#0A0909"/>
<path d="M261.859 455.412C278.779 444.613 295.023 432.788 310.499 420.005Z" fill="white"/>
<path d="M310.494 420.005C310.376 420.147 310.247 420.279 310.108 420.399L308.954 421.473C307.953 422.399 306.487 423.704 304.672 425.28C301.043 428.425 295.981 432.591 290.374 436.778C287.866 438.626 285.344 440.454 282.806 442.26C271.414 450.32 262.22 456.04 261.854 455.406C261.367 454.692 270.565 449.049 281.863 440.929C284.398 439.134 286.905 437.302 289.401 435.46L304.134 424.614L308.74 421.22L310.023 420.304C310.169 420.187 310.327 420.087 310.494 420.005Z" fill="#0A0909"/>
<path d="M287.107 454.586C287.022 454.588 286.939 454.563 286.868 454.516C286.798 454.468 286.744 454.4 286.714 454.32C286.684 454.241 286.679 454.154 286.701 454.072C286.722 453.99 286.768 453.916 286.833 453.861L309.476 434.455C309.517 434.42 309.565 434.393 309.616 434.376C309.668 434.36 309.722 434.353 309.776 434.357C309.83 434.361 309.882 434.376 309.93 434.4C309.978 434.425 310.021 434.459 310.057 434.5C310.092 434.541 310.119 434.588 310.135 434.64C310.152 434.691 310.159 434.745 310.155 434.799C310.15 434.853 310.136 434.905 310.111 434.954C310.087 435.002 310.053 435.045 310.012 435.08L287.376 454.49C287.301 454.553 287.205 454.587 287.107 454.586Z" fill="#0A0909"/>
<path d="M268.339 341.203C268.339 341.203 268.027 340.381 267.503 338.912C266.98 337.443 266.194 335.327 265.212 332.757C264.694 331.483 264.129 330.092 263.527 328.607C262.881 327.141 262.253 325.557 261.495 323.948C260.763 322.322 259.988 320.631 259.142 318.914C258.331 317.179 257.403 315.44 256.507 313.65C254.84 310.498 253.128 307.369 251.275 304.321C249.246 300.883 247.152 297.743 245.245 294.925C243.301 292.129 241.501 289.672 239.969 287.641C236.889 283.589 234.906 281.215 235.083 281.086C235.209 280.949 237.343 283.21 240.513 287.22C242.09 289.229 243.917 291.683 245.885 294.484C247.814 297.31 249.923 300.456 251.973 303.905C253.834 306.966 255.555 310.11 257.229 313.277C260.448 319.529 263.249 325.988 265.612 332.611C267.439 337.81 268.339 341.203 268.339 341.203Z" fill="#0A0909"/>
<path d="M381.098 369.941C381.098 370.032 379.644 370.328 377.368 370.521C374.485 370.76 371.587 370.739 368.708 370.46L364.343 369.912C357.847 368.937 352.847 367.942 353.139 366.47C353.439 364.804 358.347 365.921 364.78 366.678L369.086 367.226C375.514 368.081 381.105 369.681 381.098 369.941Z" fill="#0A0909"/>
<path d="M458.157 285.679C458.147 285.832 458.122 285.984 458.083 286.134C458.02 286.432 457.926 286.875 457.802 287.457C457.549 288.618 457.173 290.335 456.691 292.539C455.694 296.949 454.251 303.33 452.47 311.213C452.437 311.359 452.36 311.491 452.25 311.591C452.139 311.692 452.001 311.756 451.853 311.776C451.705 311.795 451.555 311.769 451.422 311.701C451.29 311.632 451.181 311.525 451.111 311.393L451.096 311.361C448.838 307.018 446.316 302.172 443.583 296.919L439.358 288.733L438.81 287.67C438.762 287.555 438.698 287.448 438.62 287.352C438.567 287.287 438.504 287.23 438.435 287.183C438.295 287.09 438.131 287.038 437.963 287.034C437.794 287.031 437.629 287.075 437.485 287.163C437.412 287.211 437.345 287.269 437.287 287.335L436.876 287.796L436.054 288.721L434.381 290.592L420.229 306.318L412.73 314.59C412.549 314.798 412.358 314.995 412.156 315.182C411.919 315.393 411.667 315.587 411.402 315.762C410.838 316.139 410.207 316.407 409.543 316.55C408.698 316.737 407.812 316.613 407.051 316.2C406.786 316.032 406.531 315.849 406.287 315.652L405.721 315.222C404.205 314.068 402.627 312.872 401.145 311.463C399.927 310.312 398.831 309.038 397.877 307.661C397.639 307.314 397.404 306.968 397.191 306.611C397.067 306.399 397.005 306.337 396.83 306.001C396.677 305.712 396.561 305.403 396.486 305.085C396.338 304.461 396.334 303.813 396.474 303.188C396.614 302.563 396.895 301.979 397.296 301.479L403.874 294.572L416.818 281.031L420.679 277.009L422.585 275.022L423.059 274.528C423.213 274.371 423.414 274.153 423.398 274.165C423.459 274.08 423.491 273.978 423.489 273.873C423.487 273.764 423.449 273.658 423.381 273.572C423.351 273.53 423.313 273.494 423.269 273.468C423.177 273.411 423.078 273.368 422.974 273.34L420.458 272.4L415.491 270.553L396.794 263.549C396.515 263.444 396.273 263.259 396.098 263.018C395.922 262.777 395.821 262.49 395.807 262.192C395.792 261.895 395.865 261.599 396.016 261.342C396.167 261.085 396.39 260.878 396.657 260.745H396.668C412.154 253.082 425.567 247.576 435.041 244.063C439.827 242.229 443.633 241.111 446.246 240.387C448.86 239.663 450.293 239.404 450.358 239.673C450.478 239.957 449.202 240.665 446.714 241.749C444.225 242.833 440.489 244.243 435.92 246.237C426.613 250.175 413.385 255.809 398.042 263.519L397.905 260.662L416.611 267.573L421.568 269.405C422.401 269.715 423.24 270.025 424.083 270.336C424.407 270.448 424.717 270.597 425.008 270.779C425.345 270.995 425.643 271.267 425.891 271.582C426.394 272.214 426.678 272.992 426.699 273.8C426.721 274.608 426.478 275.4 426.008 276.058C425.833 276.29 425.642 276.509 425.436 276.714L424.961 277.21L423.056 279.211L419.199 283.261L406.213 296.845L399.843 303.517C399.752 303.628 399.686 303.759 399.652 303.9C399.618 304.04 399.617 304.187 399.647 304.328C399.669 304.449 399.713 304.509 399.956 304.902C400.143 305.217 400.346 305.516 400.55 305.815C401.379 307.01 402.33 308.115 403.389 309.112C404.695 310.365 406.168 311.502 407.678 312.666L408.638 313.405C408.638 313.405 408.697 313.443 408.912 313.405C409.176 313.344 409.426 313.236 409.65 313.084C409.78 313.001 409.904 312.91 410.02 312.81C410.094 312.751 410.268 312.561 410.432 312.385L418.019 304.217L432.451 288.79L434.168 286.964L435.018 286.061L435.441 285.611C435.666 285.376 435.921 285.174 436.201 285.008C436.765 284.682 437.412 284.526 438.063 284.561C438.714 284.595 439.341 284.818 439.868 285.202C440.129 285.39 440.36 285.616 440.553 285.873C440.72 286.095 440.862 286.334 440.975 286.587L441.493 287.666L445.468 295.98L452.446 310.693L451.02 310.846C453.178 303.067 454.926 296.771 456.133 292.417C456.752 290.245 457.229 288.557 457.588 287.418L458 286.124C458.035 285.97 458.088 285.82 458.157 285.679Z" fill="#0A0909"/>
<path d="M459.019 282.239C459.019 282.239 459.272 281.057 459.809 278.793C460.346 276.529 461.155 273.184 462.196 268.846C464.334 260.186 467.449 247.574 471.351 231.776L472.124 232.47L450.607 240.391C450.514 240.425 450.415 240.441 450.316 240.437C450.217 240.433 450.119 240.41 450.029 240.368C449.939 240.327 449.858 240.268 449.791 240.195C449.724 240.122 449.671 240.036 449.637 239.943C449.606 239.855 449.59 239.762 449.592 239.669V239.652C450.003 213.027 450.502 180.596 451.056 144.566C451.134 140.062 451.212 135.504 451.29 130.89C451.309 129.738 451.329 128.581 451.35 127.421L451.389 125.663C451.418 125.003 451.501 124.348 451.635 123.702C452.186 121.082 453.592 118.72 455.63 116.986C457.675 115.221 460.24 114.172 462.935 113.999C463.635 113.953 464.237 113.955 464.821 113.959H466.609H470.204L484.731 113.977L544.943 114.125L570.502 114.232L583.282 114.285L589.671 114.311L592.867 114.325C593.92 114.334 594.97 114.3 596.246 114.43C601.131 114.957 605.516 118.581 606.857 123.358C607.219 124.528 607.329 125.798 607.341 126.982L607.311 130.177L607.249 136.566L607.005 162.126C606.656 196.074 606.32 228.327 606.018 257.954C605.939 265.363 605.861 272.602 605.784 279.672C605.762 281.659 605.154 283.949 603.557 285.528C601.997 287.104 600.001 287.816 598.17 288.185C596.318 288.569 594.48 288.613 592.749 288.596L587.695 288.539L549.974 288.088L491.228 287.193L471.602 286.743L464.526 286.51L461.71 286.393C461.32 286.377 460.789 286.339 460.575 286.345C460.438 286.42 460.687 286.166 460.405 286.497C459.994 286.853 459.679 286.717 459.498 286.715C459.444 286.713 459.39 286.701 459.341 286.68C459.291 286.658 459.247 286.626 459.209 286.587C459.172 286.548 459.143 286.502 459.123 286.451C459.104 286.4 459.095 286.347 459.096 286.293C459.098 286.259 459.103 286.226 459.111 286.194L459.118 286.169C459.255 285.695 459.104 285.073 459.011 284.595C458.911 284.166 458.837 283.732 458.792 283.294C458.73 282.555 458.956 282.198 459.019 282.247C459.121 282.261 459.081 282.584 459.283 283.206C459.379 283.519 459.531 283.908 459.709 284.399C459.861 284.899 460.151 285.472 460.032 286.38L459.614 285.781C459.666 285.786 459.719 285.786 459.77 285.781C459.77 285.781 459.77 285.764 459.78 285.79C459.789 285.836 459.801 285.882 459.817 285.927C459.849 286.003 459.861 285.99 459.801 285.939C459.446 285.754 460.183 285.31 460.405 285.319C460.978 285.252 461.252 285.277 461.721 285.252L464.538 285.181L471.618 285.074L491.256 284.985C506.667 284.978 526.561 285.07 550.008 285.229L587.731 285.514L592.785 285.555C594.443 285.573 596.043 285.517 597.563 285.196C599.07 284.897 600.465 284.319 601.36 283.393C602.273 282.487 602.665 281.156 602.701 279.647C602.762 272.585 602.825 265.349 602.891 257.937C603.157 228.31 603.439 196.057 603.749 162.108L603.993 136.55L604.053 130.159L604.085 126.965C604.066 126.023 603.998 125.15 603.73 124.279C602.759 120.792 599.492 118.065 595.865 117.684C595.022 117.592 593.936 117.607 592.861 117.602L589.665 117.589L583.275 117.562L570.496 117.508L544.936 117.401L484.716 117.052L470.189 116.951L466.595 116.925L464.806 116.911C464.196 116.901 463.608 116.903 463.121 116.933C461.052 117.053 459.079 117.846 457.502 119.193C455.933 120.508 454.845 122.308 454.411 124.31C454.305 124.803 454.238 125.303 454.21 125.807L454.161 127.532C454.132 128.69 454.103 129.845 454.075 130.998C453.957 135.607 453.841 140.163 453.727 144.666C452.754 180.674 451.878 213.081 451.158 239.688L450.104 238.926L471.703 231.358H471.722C471.828 231.321 471.941 231.314 472.05 231.336C472.159 231.359 472.26 231.411 472.342 231.487C472.423 231.562 472.483 231.659 472.514 231.766C472.545 231.873 472.546 231.986 472.517 232.094C468.313 247.798 464.956 260.337 462.65 268.953C461.493 273.259 460.594 276.585 459.994 278.837C459.684 279.96 459.446 280.815 459.289 281.389C459.133 281.963 459.019 282.239 459.019 282.239Z" fill="#0A0909"/>
<path d="M454.15 142.115C454.144 141.929 484.75 140.882 519.788 141.109L543.197 141.333C578.136 141.769 605.228 142.041 605.143 143.554C605.198 145.236 578.108 144.825 543.166 144.596L519.757 144.372C484.722 143.939 454.16 142.372 454.15 142.115Z" fill="#0A0909"/>
<path d="M505.818 131.457C504.662 131.779 503.366 131.395 502.492 130.576C501.834 129.958 501.395 128.998 501.693 128.147C502.281 126.503 505.359 125.279 506.815 126.349C508.755 127.768 508.053 130.835 505.818 131.457Z" fill="#0A0909"/>
<path d="M505.818 131.457C505.764 131.371 506.732 130.738 506.872 129.558C507.088 128.349 506.05 127.247 505.283 127.585C504.66 127.644 504.068 127.882 503.577 128.271C503.429 128.388 503.299 128.527 503.192 128.682C503.174 128.682 503.152 128.819 503.233 129.023C503.38 129.421 503.773 129.795 504.146 130.054C504.887 130.58 505.578 130.72 505.818 131.45C505.937 131.846 505.797 132.227 505.316 132.497C504.835 132.767 504.04 132.873 503.124 132.606C502.556 132.436 502.027 132.156 501.569 131.781C501.111 131.405 500.732 130.943 500.454 130.42C500.038 129.658 499.91 128.772 500.093 127.924C500.325 127.084 500.807 126.335 501.476 125.778C502.497 124.932 503.756 124.423 505.078 124.322C505.909 124.247 506.742 124.455 507.441 124.911C508.141 125.367 508.666 126.045 508.933 126.836C509.137 127.412 509.197 128.029 509.108 128.634C509.019 129.239 508.783 129.813 508.422 130.306C507.982 130.915 507.333 131.34 506.599 131.5C506.103 131.605 505.83 131.502 505.818 131.457Z" fill="#0A0909"/>
<path d="M484.128 130.442C481.432 127.277 486.58 124.161 489.03 126.858C491.689 129.786 486.559 133.294 484.128 130.442Z" fill="#0A0909"/>
<path d="M484.128 130.442C484.162 130.41 484.434 130.502 484.802 130.646C485.213 130.725 485.74 130.827 486.31 130.646C486.912 130.468 487.443 130.103 487.824 129.604C487.997 129.398 488.116 129.152 488.171 128.889C488.219 128.676 488.139 128.565 488.108 128.408C487.99 128.088 487.56 127.632 487.149 127.537C486.666 127.335 485.996 127.487 485.534 127.724C485.19 127.903 484.911 128.185 484.734 128.53C484.414 129.045 484.741 129.958 484.131 130.44C483.816 130.714 483.446 130.733 482.98 130.45C482.552 130.165 481.987 129.44 481.994 128.275C482.001 127.11 482.727 125.834 483.84 125.11C484.953 124.387 486.444 123.951 488.074 124.407C488.793 124.625 489.452 125.008 489.996 125.527C490.54 126.046 490.955 126.685 491.207 127.394C491.47 128.276 491.409 129.296 491.022 130.05C490.694 130.731 490.184 131.308 489.548 131.716C489.069 132.042 488.528 132.268 487.958 132.38C487.389 132.491 486.803 132.486 486.236 132.364C485.502 132.198 484.852 131.777 484.401 131.175C484.151 130.728 484.081 130.483 484.128 130.442Z" fill="#0A0909"/>
<path d="M473.408 128.453C473.383 128.967 473.232 129.467 472.97 129.91C472.707 130.352 472.34 130.723 471.9 130.991C471.461 131.259 470.963 131.415 470.449 131.446C469.935 131.477 469.422 131.382 468.953 131.169C468.485 130.955 468.076 130.631 467.762 130.223C467.448 129.815 467.239 129.337 467.152 128.83C467.066 128.322 467.105 127.802 467.266 127.313C467.427 126.824 467.705 126.382 468.077 126.026C470.078 124.102 473.546 125.668 473.408 128.453Z" fill="#0A0909"/>
<path d="M473.408 128.453C473.293 128.487 473.047 127.285 471.9 126.739C471.344 126.446 470.697 126.376 470.091 126.544C469.828 126.622 469.586 126.758 469.383 126.942C469.18 127.126 469.022 127.354 468.919 127.609C468.695 128.064 468.715 128.685 468.936 129.042C469.146 129.488 469.739 129.843 470.223 129.892C470.674 129.942 471.129 129.829 471.504 129.573C472.277 129.098 472.636 128.449 473.404 128.453C473.815 128.463 474.137 128.727 474.226 129.307C474.315 129.887 474.118 130.72 473.453 131.517C473.037 132.007 472.515 132.396 471.926 132.653C471.337 132.91 470.698 133.029 470.056 133.002C469.266 132.983 468.494 132.766 467.811 132.369C467.127 131.972 466.556 131.409 466.148 130.733C465.741 130.056 465.511 129.287 465.48 128.498C465.449 127.709 465.618 126.924 465.972 126.218C466.721 124.609 468.488 123.711 469.958 123.819C470.578 123.843 471.185 124.008 471.731 124.302C472.277 124.595 472.749 125.01 473.11 125.515C473.704 126.351 473.781 127.195 473.698 127.707C473.616 128.22 473.461 128.453 473.408 128.453Z" fill="#0A0909"/>
<path d="M542.549 130.587C542.549 130.402 550.909 129.14 560.455 129.126L566.838 129.188C576.364 129.382 583.75 129.462 583.717 130.98C583.717 132.66 576.334 132.437 566.808 132.451L560.425 132.39C550.874 132.194 542.55 130.843 542.549 130.587Z" fill="#0A0909"/>
<path d="M472.123 231.432C473.857 234.466 477.107 239.451 476.79 241.025C474.153 254.122 464.969 288.432 458.055 311.352C455.496 312.086 452.998 311.352 451.316 311.404" fill="#0A0909"/>
<path d="M440.6 291.979C433.234 301.229 423.99 310.221 415.406 317.589C413.951 318.837 411.457 318.433 407.758 315.737C416.532 308.322 424.463 299.963 431.407 290.811C432.45 289.44 433.501 288.03 434.934 287.078C436.368 286.125 438.291 285.707 439.82 286.499C441.35 287.291 441.668 290.633 440.6 291.979Z" fill="#0A0909"/>
<path d="M613.236 123.12C615.703 128.876 615.41 135.386 615.107 141.642C613.17 181.595 612.713 221.582 613.736 261.605C613.895 267.813 614.031 274.308 611.305 279.88C608.579 285.452 600.138 289.741 594.354 287.563C596.618 288.751 601.38 287.19 602.685 284.981C603.989 282.772 604.098 280.08 604.17 277.512C605.256 239.025 605.541 200.518 605.822 162.015L606.035 132.947C606.064 128.953 606.074 124.847 604.621 121.13C603.168 117.414 598.536 114.599 594.57 114.4C598.069 114.674 602.369 113.989 605.671 115.633C608.972 117.278 611.791 119.757 613.236 123.12Z" fill="#0A0909"/>
<path d="M534.704 213.286L559.06 179.846L559.227 181.089C554.258 177.428 548.523 174.944 542.454 173.825C536.012 172.592 528.924 173.132 522.106 175.385C518.748 176.661 515.41 178.222 512.354 180.364C509.339 182.54 506.431 185.011 504.042 188.018C499.04 194.11 495.966 201.552 495.212 209.398C494.888 213.058 494.95 216.782 495.701 220.394C495.945 222.227 496.577 223.97 497.047 225.75C497.749 227.454 498.295 229.227 499.205 230.837C502.444 237.468 507.634 243.109 513.87 247.021C517.022 249.065 520.496 250.426 523.963 251.53L526.618 252.142C527.06 252.239 527.496 252.359 527.94 252.436L529.279 252.602L531.942 252.925L534.601 252.984C535.042 252.984 535.483 253.019 535.922 253.004L537.233 252.899C538.105 252.825 538.977 252.777 539.837 252.686C541.534 252.329 543.264 252.185 544.882 251.64L547.327 250.944L549.672 250.028L550.835 249.577L551.944 249.017L554.145 247.908C559.571 244.816 564.231 240.543 567.78 235.405C570.919 230.837 573.058 225.657 574.054 220.204L575.187 221.821C562.219 219.456 551.769 217.246 544.83 215.744C537.891 214.242 534.277 213.414 534.702 213.277C535.089 213.109 539.281 213.65 546.403 214.6C553.546 215.559 563.467 216.93 575.681 219.013C576.059 219.077 576.396 219.289 576.618 219.602C576.839 219.915 576.928 220.303 576.864 220.681V220.696C575.869 226.571 573.626 232.165 570.285 237.099C566.505 242.659 561.512 247.288 555.681 250.637L553.315 251.843L552.121 252.449L550.868 252.943L548.341 253.935L545.706 254.699C543.957 255.285 542.092 255.462 540.257 255.842C539.326 255.946 538.385 256.004 537.442 256.086L536.023 256.199C535.549 256.216 535.072 256.189 534.594 256.186L531.716 256.127C530.757 256.035 529.797 255.901 528.838 255.787L527.389 255.609C526.91 255.527 526.437 255.401 525.958 255.298L523.08 254.64C519.321 253.464 515.561 251.988 512.136 249.791C505.386 245.554 499.786 239.458 496.282 232.293C495.305 230.548 494.701 228.635 493.952 226.79C493.433 224.872 492.764 222.976 492.491 220.993C491.686 217.081 491.609 213.044 491.962 209.08L492.365 205.874L493.085 202.74C493.286 201.686 493.659 200.684 494.004 199.677C494.374 198.679 494.635 197.64 495.123 196.696C496.719 192.761 499.077 189.242 501.664 186.043C504.276 182.836 507.436 180.215 510.701 177.933C514.013 175.685 517.615 174.065 521.226 172.774C528.556 170.488 536.13 170.1 542.9 171.561C549.25 172.887 555.21 175.657 560.316 179.657L560.342 179.677C560.529 179.824 560.649 180.038 560.677 180.273C560.706 180.508 560.639 180.745 560.493 180.931L534.704 213.286Z" fill="#0A0909"/>
<path d="M550.146 207.598L580.679 179.709C584.409 183.792 587.282 188.581 589.128 193.794C590.974 199.007 591.757 204.537 591.428 210.057L550.146 207.598Z" fill="#0A0909"/>
<path d="M550.147 207.598L562.779 207.872C570.453 207.998 580.51 207.983 591.52 208.503L589.876 209.96C590.003 207.087 589.835 204.21 589.374 201.372C588.469 195.674 586.336 190.242 583.121 185.451C582.026 183.812 580.812 182.254 579.49 180.792L581.761 180.894C573.307 188.603 565.818 194.92 560.107 199.629C554.423 204.32 550.766 207.375 550.139 207.598C549.403 207.885 552.234 204.994 557.456 199.718C562.677 194.442 570.498 186.816 579.585 178.518C579.9 178.23 580.317 178.079 580.744 178.098C581.171 178.117 581.573 178.305 581.861 178.621C583.302 180.194 584.627 181.87 585.825 183.635C589.304 188.819 591.612 194.699 592.591 200.865C593.065 203.935 593.193 207.05 592.972 210.149V210.184C592.957 210.386 592.903 210.583 592.813 210.763C592.723 210.944 592.597 211.105 592.445 211.237C592.292 211.37 592.115 211.471 591.923 211.534C591.731 211.598 591.529 211.623 591.327 211.608C579.467 210.771 568.872 209.539 561.612 208.774L553.106 207.911L550.865 207.69C550.624 207.677 550.384 207.646 550.147 207.598Z" fill="#FFFD00" fill-opacity="0.815686"/>
<path d="M535.303 254.282C535.117 254.289 533.602 246.115 533.3 236.725L533.162 230.45C533.068 221.081 532.928 213.817 534.441 213.804C536.121 213.75 536.123 221.017 536.424 230.387L536.561 236.662C536.657 246.051 535.559 254.274 535.303 254.282Z" fill="#0A0909"/>
<path d="M470.162 171.914C470.162 171.864 470.678 171.794 471.581 171.694L475.37 171.334C476.957 171.197 478.835 171.074 480.901 171.005C481.937 170.973 483.016 170.952 484.141 170.971C485.266 170.99 486.401 171.016 487.704 171.208C488.058 171.293 488.231 171.271 488.768 171.471L489.109 171.608C489.202 171.652 489.246 171.688 489.317 171.727L489.705 171.96C490.208 172.263 490.689 172.6 491.146 172.968C492 173.67 492.805 174.43 493.556 175.243C495.028 176.888 496.401 178.619 497.668 180.427C498.82 182.05 499.788 183.522 500.558 184.766C502.082 187.267 502.888 188.812 502.307 189.304C501.68 189.864 500.184 188.673 498.326 186.374C497.388 185.232 496.342 183.826 495.173 182.284C494.004 180.742 492.686 179.059 491.177 177.474C490.531 176.775 489.839 176.12 489.105 175.514C488.761 175.237 488.399 174.983 488.021 174.753C487.514 174.442 487.697 174.549 487.166 174.428C485.125 174.115 482.813 173.96 480.805 173.734C478.766 173.521 476.895 173.292 475.315 173.048C472.145 172.591 470.147 172.042 470.162 171.914Z" fill="#0A0909"/>
<path d="M463.854 172.241C463.224 174.374 465.309 176.806 467.512 176.507C469.716 176.209 471.076 173.312 469.905 171.424C468.735 169.537 465.528 169.48 464.286 171.324C463.273 172.832 463.987 175.318 465.759 175.71C467.531 176.102 469.186 173.517 467.873 172.264" fill="#0A0909"/>
<path d="M467.873 172.258C467.89 172.241 467.979 172.282 468.147 172.395C468.386 172.592 468.559 172.856 468.644 173.154C468.783 173.643 468.766 174.164 468.594 174.642C468.375 175.315 467.936 175.894 467.347 176.287C466.952 176.544 466.497 176.695 466.027 176.725C465.505 176.742 464.987 176.629 464.52 176.396C463.56 175.914 462.875 174.982 462.57 173.938C462.397 173.358 462.347 172.748 462.424 172.147C462.5 171.547 462.702 170.969 463.015 170.451C463.37 169.911 463.833 169.452 464.376 169.102C464.919 168.752 465.529 168.519 466.167 168.419C467.279 168.236 468.42 168.404 469.433 168.897C469.98 169.168 470.466 169.545 470.863 170.008C471.261 170.471 471.56 171.009 471.745 171.59C472.061 172.743 471.971 173.969 471.489 175.063C471.008 176.157 470.166 177.052 469.103 177.598C468.128 178.076 467.006 178.163 465.97 177.84C465.153 177.58 464.425 177.098 463.867 176.447C462.877 175.312 462.681 174.013 462.868 173.217C463.064 172.395 463.515 172.121 463.851 172.243C464.262 172.369 464.453 172.735 464.694 173.133C464.935 173.532 465.242 174.057 465.816 174.504C466.093 174.728 466.418 174.886 466.766 174.963C467.084 175.03 467.416 174.979 467.699 174.818C468.069 174.596 468.36 174.263 468.528 173.867C468.722 173.424 468.768 172.907 468.634 172.558C468.582 172.395 468.496 172.244 468.383 172.116C468.27 171.988 468.131 171.884 467.976 171.812C467.576 171.627 467.129 171.566 466.693 171.637C465.67 171.809 465.202 172.336 465.237 173.346C465.326 174.305 465.911 174.908 466.573 174.749C467.343 174.56 467.921 173.761 467.979 173.233C468.088 172.666 467.802 172.308 467.873 172.258Z" fill="#0A0909"/>
<path d="M584.889 258.93C584.836 259.005 583.587 258.573 581.758 257.71C579.452 256.619 577.238 255.343 575.14 253.893L572 251.625C567.378 248.155 563.756 245.518 564.653 244.3C565.628 242.929 569.168 245.68 573.912 248.98L577.049 251.249C581.686 254.728 585.037 258.721 584.889 258.93Z" fill="#0A0909"/>
<path d="M92.5023 358.959C84.4548 373.285 84.8523 386.978 86.7874 403.294C87.8838 412.582 88.7485 421.9 89.6654 431.208C90.1341 436.005 90.6042 440.802 91.1099 445.598C91.3278 447.665 91.9089 449.984 91.8171 452.051C91.7307 453.99 90.4013 455.522 91.9774 457.454C93.0436 458.763 94.706 459.41 96.3095 459.94C99.7453 461.077 103.269 461.926 106.788 462.772C109.874 463.515 113.027 464.26 116.19 463.988C118.758 463.765 121.217 462.879 123.62 461.948C128.706 459.982 133.593 457.675 138.422 455.242C143.725 452.574 149.591 450.677 155.088 448.428L188.402 434.798C190.96 433.752 193.514 432.707 196.065 431.663L227.118 418.965C235.889 415.378 245.947 415.908 251.494 407.629C246.287 387.483 239.263 364.292 233.083 344.42C233.828 346.81 247.835 333.146 248.668 331.188C251.494 324.551 246.951 316.746 243.336 311.179C237.717 302.533 231.705 293.964 223.767 287.387C215.829 280.811 205.67 276.347 195.391 277.164C191.652 286.469 183.438 293.87 173.788 296.611C165.572 298.941 158.816 296.986 151.436 293.216C150.267 292.619 141.367 286.336 137.465 282.411C136.232 281.168 134.327 280.767 132.755 281.545C125.025 285.362 112.99 282.544 104.909 283.283C93.955 284.277 82.7376 286.88 74.0419 293.997C62.8369 303.163 50.1572 324.148 47.3436 338.278C46.2226 343.896 49.4473 342.076 55.3691 343.006C59.9548 343.725 64.4362 344.604 68.8588 346.047C71.0214 346.753 93.7604 356.721 92.5023 358.959Z" fill="#0A0909"/>
<path d="M418.848 54.0743C418.881 54.1839 417.692 54.8157 416.082 55.9614C414.103 57.3707 412.279 58.9859 410.641 60.78C409.807 61.6543 409.062 62.6086 408.416 63.6293C408.141 64.0157 407.928 64.4241 407.693 64.8092L407.629 64.9161C407.488 65.1488 407.29 65.3414 407.053 65.4753C406.816 65.6092 406.549 65.6799 406.277 65.6808C406.005 65.6816 405.738 65.6124 405.5 65.48C405.262 65.3475 405.063 65.1562 404.921 64.9244C402.232 60.5388 400.3 57.2689 401.47 56.5357C402.757 55.701 404.807 58.8997 407.629 63.1948L404.85 63.3113C405.109 62.844 405.355 62.352 405.658 61.8833C406.419 60.6806 407.299 59.5568 408.283 58.5283C410.53 56.2383 413.301 54.924 415.368 54.3991C417.451 53.8495 418.824 53.9742 418.848 54.0743Z" fill="#FFFD00" fill-opacity="0.815686"/>
<path d="M484.124 205.748C484.124 205.841 482.843 206.159 480.847 206.443C478.329 206.792 475.788 206.936 473.247 206.873L469.395 206.694C463.649 206.321 459.19 206.097 459.273 204.586C459.34 202.907 463.795 203.269 469.551 203.433L473.404 203.613C479.161 203.992 484.133 205.497 484.124 205.748Z" fill="#0A0909"/>
<path d="M481.226 216.911C481.226 217.098 477.831 218.439 473.943 218.543H471.339C467.461 218.439 464.453 218.424 464.461 216.911C464.453 215.23 467.461 215.384 471.339 215.28H473.943C477.831 215.384 481.226 216.656 481.226 216.911Z" fill="#0A0909"/>
<path d="M488.332 264.276C484.961 265.585 484.467 271.094 487.544 272.996C490.621 274.898 495.323 272.037 495.058 268.427C494.794 264.817 489.757 262.661 486.946 264.938C484.136 267.214 485.183 272.562 488.639 273.632" fill="#FFFD00" fill-opacity="0.815686"/>
<path d="M488.638 273.632C488.638 273.654 488.501 273.646 488.235 273.598C487.849 273.525 487.478 273.386 487.139 273.187C486.238 272.7 485.065 271.542 484.58 269.655C484.301 268.604 484.304 267.498 484.59 266.449C484.944 265.134 485.796 264.008 486.966 263.311C488.262 262.574 489.782 262.335 491.241 262.639C492.766 262.918 494.157 263.694 495.196 264.846C496.216 265.982 496.75 267.472 496.684 268.997C496.632 270.558 495.862 271.938 494.903 272.952C493.836 274.045 492.461 274.785 490.961 275.072C489.501 275.333 487.894 275.082 486.678 274.271C485.567 273.521 484.753 272.406 484.379 271.119C484.075 270.092 484.024 269.008 484.228 267.957C484.377 267.106 484.714 266.3 485.213 265.596C485.584 265.06 486.068 264.611 486.63 264.281C487.599 263.788 488.226 263.947 488.331 264.274C488.491 264.686 488.178 265.097 487.813 265.675C487.605 266.025 487.428 266.392 487.283 266.771C487.089 267.269 486.977 267.794 486.952 268.327C486.862 269.497 487.272 270.994 488.346 271.639C488.882 271.966 489.58 272.071 490.364 271.933C491.198 271.75 491.959 271.32 492.545 270.699C493.642 269.56 493.717 268.104 492.736 266.999C491.664 265.689 489.543 265.145 488.242 265.724C486.872 266.253 486.197 267.949 486.275 269.389C486.298 270.595 486.747 271.754 487.542 272.662C488.152 273.313 488.674 273.548 488.638 273.632Z" fill="#FFFD00" fill-opacity="0.815686"/>
<path d="M507.982 264.854C504.61 266.162 504.118 271.672 507.194 273.573C510.271 275.474 514.973 272.614 514.707 269.004C514.441 265.394 509.408 263.24 506.597 265.516C503.786 267.792 504.833 273.139 508.288 274.21" fill="#FFFD00" fill-opacity="0.815686"/>
<path d="M508.287 274.21C508.287 274.232 508.15 274.223 507.884 274.176C507.498 274.102 507.127 273.963 506.788 273.765C505.889 273.277 504.716 272.12 504.229 270.233C503.951 269.182 503.954 268.076 504.24 267.026C504.594 265.711 505.447 264.585 506.616 263.888C507.912 263.151 509.432 262.912 510.891 263.216C512.416 263.496 513.806 264.271 514.845 265.423C515.866 266.559 516.401 268.05 516.335 269.575C516.283 271.136 515.512 272.516 514.553 273.529C513.487 274.622 512.111 275.362 510.611 275.649C509.152 275.91 507.544 275.659 506.329 274.848C505.216 274.099 504.402 272.983 504.029 271.696C503.726 270.669 503.674 269.585 503.878 268.534C504.028 267.684 504.364 266.878 504.864 266.174C505.234 265.638 505.718 265.189 506.281 264.86C507.248 264.365 507.875 264.525 507.981 264.86C508.142 265.271 507.827 265.682 507.463 266.259C507.256 266.608 507.078 266.975 506.933 267.355C506.739 267.853 506.628 268.379 506.603 268.912C506.512 270.082 506.922 271.578 507.997 272.223C508.532 272.549 509.23 272.656 510.014 272.516C510.849 272.334 511.609 271.904 512.196 271.283C513.292 270.144 513.367 268.687 512.386 267.583C511.313 266.274 509.192 265.73 507.892 266.308C506.522 266.839 505.848 268.532 505.924 269.973C505.947 271.179 506.396 272.339 507.192 273.246C507.801 273.895 508.32 274.125 508.287 274.21Z" fill="#FFFD00" fill-opacity="0.815686"/>
<path d="M527.671 265.926C524.299 267.235 523.805 272.744 526.882 274.646C529.959 276.548 534.661 273.687 534.396 270.077C534.132 266.467 529.095 264.311 526.286 266.588C523.476 268.864 524.522 274.212 527.977 275.282" fill="#FFFD00" fill-opacity="0.815686"/>
<path d="M527.976 275.282C527.969 275.305 527.839 275.296 527.565 275.248C527.178 275.175 526.807 275.036 526.468 274.837C525.568 274.35 524.396 273.192 523.91 271.305C523.631 270.254 523.634 269.148 523.919 268.099C524.273 266.784 525.126 265.658 526.296 264.961C527.592 264.224 529.112 263.985 530.571 264.289C532.097 264.569 533.487 265.344 534.525 266.496C535.545 267.632 536.079 269.122 536.014 270.647C535.962 272.208 535.191 273.588 534.232 274.602C533.165 275.695 531.789 276.435 530.289 276.721C528.831 276.983 527.223 276.732 526.008 275.921C524.896 275.171 524.082 274.056 523.707 272.769C523.404 271.742 523.352 270.658 523.556 269.607C523.705 268.756 524.042 267.949 524.543 267.245C524.913 266.71 525.397 266.261 525.958 265.931C526.927 265.438 527.554 265.597 527.661 265.924C527.82 266.336 527.506 266.747 527.141 267.325C526.934 267.675 526.757 268.042 526.611 268.421C526.418 268.919 526.306 269.444 526.282 269.977C526.19 271.147 526.601 272.644 527.676 273.288C528.21 273.615 528.909 273.721 529.692 273.583C530.526 273.4 531.287 272.97 531.873 272.349C532.97 271.21 533.047 269.753 532.065 268.649C530.992 267.339 528.871 266.795 527.572 267.373C526.201 267.903 525.525 269.599 525.604 271.039C525.626 272.245 526.075 273.405 526.871 274.312C527.488 274.967 528.006 275.198 527.976 275.282Z" fill="#FFFD00" fill-opacity="0.815686"/>
<path d="M485.817 523.425C485.817 523.425 485.579 523.646 485.093 524.053L482.918 525.846C480.981 527.382 478.232 529.786 474.492 532.59C470.678 535.285 466.19 538.835 460.575 542.309C455.093 545.989 448.604 549.751 441.364 553.699L435.745 556.599C433.826 557.587 431.888 558.622 429.834 559.52L423.606 562.378L420.409 563.845L417.097 565.193C412.641 566.998 408.069 568.938 403.241 570.574L395.945 573.174L388.373 575.545C383.291 577.234 377.968 578.506 372.603 580.001C369.914 580.724 367.16 581.288 364.406 581.948C361.642 582.567 358.873 583.28 356.046 583.783L347.516 585.427C344.656 585.996 341.745 586.376 338.835 586.861C333.02 587.864 327.088 588.505 321.123 589.258C299.823 591.587 278.375 592.182 256.985 591.731C245.015 591.376 233.387 590.821 222.231 589.891C211.068 589.051 200.377 587.902 190.237 586.747C169.968 584.335 151.942 581.582 136.912 579.122C121.882 576.662 109.85 574.448 101.589 572.85C93.3317 571.23 88.8434 570.181 88.9612 569.816C88.9832 569.394 93.5633 569.861 101.893 571.049C110.226 572.213 122.3 574.137 137.339 576.405C152.379 578.673 170.384 581.316 190.596 583.655C200.706 584.773 211.362 585.893 222.478 586.707C233.587 587.612 245.158 588.142 257.063 588.471C278.33 588.919 299.634 588.327 320.764 586.015C344.474 583.358 367.239 579.006 387.582 572.93C407.955 566.967 425.955 559.614 440.555 552.182C452.186 546.263 463.389 539.54 474.083 532.059C477.906 529.39 480.738 527.097 482.747 525.65L485.018 523.971C485.534 523.601 485.817 523.425 485.817 523.425Z" fill="#0A0909"/>
<path d="M187.944 337.324C193.536 336.426 198.85 342.858 194.064 347.43C189.679 351.622 183.145 345.456 187.012 341.062C187.536 340.466 186.663 339.588 186.136 340.188C181.541 345.41 188.619 353.208 194.305 348.845C200.969 343.731 194.804 334.976 187.615 336.13C186.831 336.256 187.164 337.45 187.944 337.324Z" fill="#FFFD00" fill-opacity="0.815686"/>
<path d="M223.436 367.863C229.027 366.966 234.341 373.397 229.556 377.969C225.171 382.162 218.638 375.994 222.503 371.602C223.027 371.006 222.156 370.127 221.628 370.726C217.033 375.948 224.11 383.746 229.798 379.385C236.46 374.27 230.295 365.516 223.106 366.67C222.322 366.796 222.655 367.989 223.436 367.863Z" fill="#FFFD00" fill-opacity="0.815686"/>
<path d="M222.197 405.006C227.79 404.109 233.104 410.54 228.318 415.111C223.932 419.304 217.399 413.137 221.266 408.745C221.79 408.149 220.917 407.27 220.39 407.869C215.795 413.091 222.873 420.889 228.559 416.528C235.222 411.413 229.058 402.659 221.869 403.813C221.085 403.939 221.418 405.132 222.197 405.006Z" fill="#FFFD00" fill-opacity="0.815686"/>
<path d="M165.24 415.323C170.833 414.426 176.145 420.857 171.361 425.429C166.975 429.621 160.442 423.456 164.308 419.062C164.832 418.467 163.96 417.587 163.433 418.188C158.838 423.409 165.916 431.207 171.602 426.845C178.265 421.73 172.101 412.976 164.911 414.13C164.126 414.256 164.459 415.449 165.24 415.323Z" fill="#FFFD00" fill-opacity="0.815686"/>
<path d="M108.707 438.847C114.3 437.95 119.612 444.38 114.828 448.952C110.442 453.146 103.909 446.978 107.775 442.586C108.299 441.99 107.427 441.111 106.9 441.71C102.304 446.932 109.382 454.73 115.069 450.369C121.731 445.254 115.567 436.5 108.378 437.654C107.593 437.78 107.926 438.973 108.707 438.847Z" fill="#FFFD00" fill-opacity="0.815686"/>
<path d="M203.213 286.562C208.806 285.665 214.119 292.095 209.334 296.667C204.948 300.861 198.415 294.694 202.281 290.301C202.806 289.705 201.933 288.827 201.405 289.425C196.81 294.647 203.889 302.445 209.575 298.084C216.238 292.969 210.074 284.215 202.884 285.369C202.099 285.495 202.432 286.689 203.213 286.562Z" fill="#FFFD00" fill-opacity="0.815686"/>
<path d="M126.457 327.419C132.05 326.522 137.363 332.953 132.577 337.524C128.192 341.717 121.66 335.55 125.525 331.158C126.05 330.562 125.177 329.683 124.649 330.282C120.055 335.504 127.132 343.302 132.82 338.941C139.482 333.826 133.317 325.072 126.128 326.226C125.344 326.352 125.677 327.545 126.457 327.419Z" fill="#FFFD00" fill-opacity="0.815686"/>
<path d="M71.5646 313.222C77.1575 312.325 82.4709 318.756 77.6852 323.328C73.2996 327.521 66.7666 321.355 70.6327 316.961C71.1576 316.366 70.2846 315.486 69.757 316.087C65.1617 321.308 72.2403 329.106 77.9264 324.744C84.5897 319.629 78.4252 310.875 71.2357 312.029C70.4504 312.155 70.7834 313.349 71.5646 313.222Z" fill="#FFFD00" fill-opacity="0.815686"/>
<path d="M108.707 393.864C114.3 392.965 119.612 399.397 114.828 403.969C110.442 408.162 103.909 401.995 107.775 397.603C108.299 397.007 107.427 396.127 106.9 396.727C102.304 401.949 109.382 409.747 115.069 405.385C121.731 400.27 115.567 391.515 108.378 392.669C107.593 392.795 107.926 393.989 108.707 393.864Z" fill="#FFFD00" fill-opacity="0.815686"/>
</g>
<defs>
<clipPath id="clip0_67_1802">
<rect width="589.306" height="565.872" fill="white" transform="translate(26 26)"/>
</clipPath>
</defs>
</svg>
